<svg width="130" height="48" viewBox="0 0 130 48" fill="none" xmlns="http://www.w3.org/2000/svg">
<g clip-path="url(#clip0)">
<path d="M60.7717 21.2878H58.368V20.3317C57.7089 21.1122 56.7397 21.522 55.4602 21.522C54.6461 21.522 53.9095 21.2488 53.2504 20.7024C52.5913 20.1561 52.2811 19.4146 52.2811 18.4585C52.2811 17.4634 52.5913 16.722 53.231 16.2342C53.8707 15.7463 54.6073 15.4927 55.4602 15.4927C56.759 15.4927 57.7283 15.8634 58.368 16.6244V15.3951C58.368 14.9268 58.1935 14.5561 57.8252 14.2634C57.4569 13.9903 56.9723 13.8537 56.3713 13.8537C55.3633 13.8537 54.4716 14.2244 53.6962 14.9463L52.7851 13.3268C53.8707 12.3707 55.2082 11.8829 56.7784 11.8829C57.9609 11.8829 58.9108 12.1561 59.6668 12.7024C60.4034 13.2488 60.7911 14.1463 60.7911 15.3756V21.2878H60.7717ZM56.4295 19.8829C57.3212 19.8829 57.9803 19.6098 58.368 19.0829V17.9317C57.9803 17.4049 57.3406 17.1317 56.4295 17.1317C55.9449 17.1317 55.5184 17.2488 55.1889 17.5024C54.8593 17.7561 54.7042 18.0878 54.7042 18.5171C54.7042 18.9268 54.8593 19.2585 55.1889 19.5122C55.5184 19.7463 55.9449 19.8829 56.4295 19.8829Z" fill="white"/>
<path d="M65.2884 21.522C64.4355 21.522 63.7958 21.3073 63.3499 20.8781C62.9041 20.4488 62.6909 19.8244 62.6909 19.0049V14.1854H61.1788V12.0781H62.6909V9.56098H65.114V12.0781H66.9749V14.1854H65.114V18.3415C65.114 18.6341 65.1915 18.8683 65.3466 19.0634C65.5017 19.2585 65.6955 19.3561 65.9475 19.3561C66.3352 19.3561 66.6066 19.2585 66.7811 19.0829L67.2851 20.9171C66.8586 21.3073 66.1801 21.522 65.2884 21.522Z" fill="white"/>
<path d="M75.5818 21.2878H73.178V20.3317C72.519 21.1122 71.5497 21.522 70.2703 21.522C69.4561 21.522 68.7195 21.2488 68.0604 20.7024C67.4013 20.1561 67.0912 19.4146 67.0912 18.4585C67.0912 17.4634 67.4013 16.722 68.041 16.2342C68.6807 15.7463 69.4174 15.4927 70.2703 15.4927C71.5691 15.4927 72.5383 15.8634 73.178 16.6244V15.3951C73.178 14.9268 73.0036 14.5561 72.6353 14.2634C72.267 13.9903 71.7823 13.8537 71.1814 13.8537C70.1734 13.8537 69.2817 14.2244 68.5063 14.9463L67.5952 13.3268C68.6807 12.3707 70.0183 11.8829 71.5885 11.8829C72.771 11.8829 73.7208 12.1561 74.4768 12.7024C75.2135 13.2488 75.6012 14.1463 75.6012 15.3756V21.2878H75.5818ZM71.2396 19.8829C72.1313 19.8829 72.7903 19.6098 73.178 19.0829V17.9317C72.7903 17.4049 72.1506 17.1317 71.2396 17.1317C70.7549 17.1317 70.3285 17.2488 69.9989 17.5024C69.6694 17.7561 69.5143 18.0878 69.5143 18.5171C69.5143 18.9268 69.6694 19.2585 69.9989 19.5122C70.3285 19.7463 70.7549 19.8829 71.2396 19.8829Z" fill="white"/>
<path d="M90.8183 21.2878H88.3952V15.4732C88.3952 14.4976 87.9494 14.0098 87.0383 14.0098C86.6506 14.0098 86.2823 14.1268 85.9527 14.3415C85.6232 14.5561 85.3518 14.8098 85.1385 15.0829V21.2878H82.7154V15.4732C82.7154 14.4976 82.2696 14.0098 81.3585 14.0098C80.9708 14.0098 80.6219 14.1268 80.2729 14.3415C79.924 14.5561 79.6526 14.8098 79.4588 15.1024V21.2878H77.0551V12.0781H79.4588V13.2878C79.6914 12.9561 80.0791 12.6439 80.6606 12.3317C81.2228 12.0195 81.8237 11.8634 82.4634 11.8634C83.7816 11.8634 84.6345 12.4293 85.0029 13.5415C85.2936 13.0927 85.7201 12.6829 86.3016 12.3512C86.8832 12.0195 87.4841 11.8634 88.1432 11.8634C88.9961 11.8634 89.6746 12.0976 90.1398 12.5659C90.6051 13.0342 90.8377 13.7171 90.8377 14.6537V21.2878H90.8183Z" fill="white"/>
<path d="M96.5369 21.522C95.1218 21.522 93.9587 21.0732 93.0282 20.1951C92.0977 19.2976 91.6519 18.1463 91.6519 16.6829C91.6519 15.3171 92.0977 14.1854 92.9894 13.2488C93.8811 12.3122 95.0248 11.8634 96.4012 11.8634C97.7581 11.8634 98.8824 12.3317 99.716 13.2683C100.569 14.2049 100.995 15.4342 100.995 16.9366V17.4634H94.1913C94.2688 18.0683 94.5402 18.5756 95.0054 18.9854C95.4707 19.3951 96.0716 19.5902 96.8276 19.5902C97.2347 19.5902 97.6806 19.5122 98.1458 19.3366C98.611 19.1805 98.9987 18.9463 99.2701 18.6732L100.336 20.2342C99.3864 21.0927 98.1264 21.522 96.5369 21.522ZM98.6498 15.8049C98.611 15.2781 98.3978 14.8098 98.0295 14.4C97.6612 13.9902 97.1184 13.7756 96.3818 13.7756C95.7033 13.7756 95.1605 13.9902 94.7922 14.4C94.4045 14.8098 94.1913 15.2781 94.1331 15.8244H98.6498V15.8049Z" fill="white"/>
<path d="M110.727 21.2878H107.703L105.279 17.7366L104.174 18.9268V21.2878H101.771V8.56586H104.174V16.1756L107.644 12.0781H110.61L106.985 16.2537L110.727 21.2878Z" fill="white"/>
<path d="M115.282 21.522C113.867 21.522 112.704 21.0732 111.773 20.1951C110.843 19.2976 110.397 18.1463 110.397 16.6829C110.397 15.3171 110.843 14.1854 111.735 13.2488C112.626 12.3122 113.77 11.8634 115.146 11.8634C116.503 11.8634 117.628 12.3317 118.461 13.2683C119.314 14.2049 119.74 15.4342 119.74 16.9366V17.4634H112.936C113.014 18.0683 113.285 18.5756 113.751 18.9854C114.216 19.3951 114.817 19.5902 115.573 19.5902C115.98 19.5902 116.426 19.5122 116.891 19.3366C117.356 19.1805 117.744 18.9463 118.015 18.6732L119.081 20.2342C118.132 21.0927 116.872 21.522 115.282 21.522ZM117.376 15.8049C117.337 15.2781 117.124 14.8098 116.755 14.4C116.387 13.9902 115.844 13.7756 115.107 13.7756C114.429 13.7756 113.886 13.9902 113.518 14.4C113.13 14.8098 112.917 15.2781 112.859 15.8244H117.376V15.8049Z" fill="white"/>
<path d="M129.103 21.2878H126.7V15.7268C126.7 14.5756 126.138 14.0098 125.013 14.0098C124.141 14.0098 123.443 14.3805 122.92 15.1024V21.2878H120.516V12.0781H122.92V13.2878C123.714 12.3317 124.781 11.8634 126.118 11.8634C127.107 11.8634 127.843 12.1171 128.347 12.6439C128.851 13.1707 129.103 13.8732 129.103 14.7902V21.2878Z" fill="white"/>
<path d="M22.0988 48.0003C21.2653 48.0003 20.4317 47.7857 19.6757 47.3759L2.86901 38.0686C1.29883 37.1906 0.290815 35.532 0.27143 33.7174L4.1298e-05 14.8686C-0.0193436 13.0345 0.949902 11.3174 2.52008 10.4198L2.81085 10.9271L2.52008 10.4198L19.4431 0.68324C20.9939 -0.194808 22.8936 -0.194808 24.4444 0.68324L41.3674 10.4198C42.957 11.3369 43.9262 13.0345 43.8875 14.8686L43.6161 33.7369C43.5967 35.532 42.6081 37.1906 41.0379 38.0686L24.5413 47.3564C23.7853 47.7857 22.9324 48.0003 22.0988 48.0003ZM21.9438 1.17105C21.2847 1.17105 20.6062 1.34666 20.0247 1.67836L3.10163 11.4149C1.88038 12.1174 1.14375 13.4442 1.16314 14.8491L1.43452 33.6979C1.45391 35.0832 2.22931 36.371 3.43117 37.0345L20.2379 46.3418C21.4204 46.9857 22.8161 46.9857 23.9792 46.3223L40.4757 37.0345C41.6776 36.3515 42.4336 35.0832 42.453 33.6979L42.7244 14.8296C42.7438 13.4247 42.0071 12.1174 40.7859 11.4149L23.8629 1.67836C23.2619 1.34666 22.6028 1.17105 21.9438 1.17105Z" fill="white"/>
<path opacity="0.3" d="M21.9437 37.3268C29.2666 37.3268 35.203 31.3602 35.203 24C35.203 16.6398 29.2666 10.6732 21.9437 10.6732C14.6208 10.6732 8.68445 16.6398 8.68445 24C8.68445 31.3602 14.6208 37.3268 21.9437 37.3268Z" fill="white"/>
<path d="M22.0988 48.0003C21.2653 48.0003 20.4317 47.7857 19.6757 47.3759L2.86901 38.0686C1.29883 37.1906 0.290815 35.532 0.27143 33.7174L4.1298e-05 14.8686C-0.0193436 13.0345 0.949902 11.3174 2.52008 10.4198L2.81085 10.9271L2.52008 10.4198L19.4431 0.68324C20.9939 -0.194808 22.8936 -0.194808 24.4444 0.68324L41.3674 10.4198C42.957 11.3369 43.9262 13.0345 43.8875 14.8686L43.6161 33.7369C43.5967 35.532 42.6081 37.1906 41.0379 38.0686L24.5413 47.3564C23.7853 47.7857 22.9324 48.0003 22.0988 48.0003ZM21.9438 1.17105C21.2847 1.17105 20.6062 1.34666 20.0247 1.67836L3.10163 11.4149C1.88038 12.1174 1.14375 13.4442 1.16314 14.8491L1.43452 33.6979C1.45391 35.0832 2.22931 36.371 3.43117 37.0345L20.2379 46.3418C21.4204 46.9857 22.8161 46.9857 23.9792 46.3223L40.4757 37.0345C41.6776 36.3515 42.4336 35.0832 42.453 33.6979L42.7244 14.8296C42.7438 13.4247 42.0071 12.1174 40.7859 11.4149L23.8629 1.67836C23.2619 1.34666 22.6028 1.17105 21.9438 1.17105Z" fill="white"/>
<path d="M22.0988 47.8829C21.5172 47.8829 20.9551 47.6293 20.5674 47.2L7.69579 32.7805C7.52132 32.5854 7.38563 32.3707 7.28871 32.1171L0.620299 14.0878C0.407065 13.522 0.46522 12.878 0.755993 12.3512C1.04677 11.8244 1.57016 11.4537 2.17109 11.3366L21.556 7.62927C21.808 7.57073 22.0794 7.57073 22.3314 7.62927L41.7163 11.3366C42.3172 11.4537 42.8212 11.8244 43.1314 12.3512C43.4222 12.878 43.4803 13.522 43.2671 14.0878L36.5793 32.1366C36.4824 32.3707 36.3661 32.5854 36.1916 32.7805L23.6496 47.1805C23.2619 47.6293 22.6997 47.8829 22.0988 47.8829ZM1.70585 13.678L8.39364 31.7268C8.43241 31.8244 8.49057 31.922 8.56811 32.0195L21.4397 46.4195C21.6142 46.6146 21.8468 46.7122 22.1182 46.7122C22.3702 46.7122 22.6222 46.5951 22.7966 46.4L35.358 32C35.4356 31.922 35.4937 31.8244 35.5325 31.7268L42.2203 13.678C42.3172 13.4244 42.2978 13.1512 42.1621 12.9171C42.0265 12.6829 41.8132 12.5268 41.5418 12.4683L22.1569 8.76098C22.0406 8.74146 21.9243 8.74146 21.8274 8.76098L2.44248 12.4683C2.17109 12.5268 1.95786 12.6829 1.82216 12.9171C1.62831 13.1512 1.60893 13.4244 1.70585 13.678Z" fill="white"/>
<path d="M35.4938 32.7805H8.39371C8.08355 32.7805 7.81216 32.6244 7.65708 32.3512C7.502 32.0976 7.502 31.7659 7.65708 31.5122L21.2071 8.25366C21.3622 8 21.6336 7.8439 21.9244 7.8439C22.2151 7.8439 22.5059 8 22.6416 8.25366L36.1917 31.5122C36.3467 31.7659 36.3467 32.0976 36.1917 32.3512C36.0753 32.6049 35.7846 32.7805 35.4938 32.7805ZM8.95587 31.6098H34.9316L21.9438 9.30732L8.95587 31.6098Z" fill="white"/>
<path d="M1.66714 36.3122L1.10498 35.2976L7.65708 31.6683L8.21924 32.7024L1.66714 36.3122Z" fill="white"/>
<path d="M42.2397 36.3512L35.6682 32.7024L36.2304 31.6683L42.8019 35.3171L42.2397 36.3512Z" fill="white"/>
<path d="M22.5253 0.585365H21.3622V8.17561H22.5253V0.585365Z" fill="white"/>
<path d="M56.7784 27.6683C57.9609 27.6683 58.9108 27.9415 59.6668 28.4878C60.4034 29.0342 60.7911 29.9317 60.7911 31.161V37.1122H58.3874V36.1561C57.7283 36.9366 56.759 37.3463 55.4796 37.3463C54.6655 37.3463 53.9288 37.0732 53.2698 36.5268C52.6107 35.9805 52.3005 35.239 52.3005 34.2829C52.3005 33.2878 52.6107 32.5463 53.2504 32.0585C53.8901 31.5707 54.6267 31.3171 55.4796 31.3171C56.7784 31.3171 57.7477 31.6878 58.3874 32.4488V31.2195C58.3874 30.7512 58.2129 30.3805 57.8446 30.0878C57.4763 29.8146 56.9917 29.6781 56.3907 29.6781C55.3827 29.6781 54.491 30.0488 53.7156 30.7707L52.8045 29.1512C53.8513 28.1561 55.1889 27.6683 56.7784 27.6683ZM56.4295 35.6878C57.3212 35.6878 57.9803 35.4146 58.368 34.8878V33.7561C57.9803 33.2293 57.3406 32.9561 56.4295 32.9561C55.9449 32.9561 55.5184 33.0732 55.1889 33.3268C54.8593 33.5805 54.7042 33.9122 54.7042 34.3415C54.7042 34.7512 54.8593 35.0829 55.1889 35.3366C55.5184 35.5707 55.9449 35.6878 56.4295 35.6878ZM56.7784 26.8878C55.0144 26.8878 53.483 27.4341 52.2617 28.5268C51.9904 28.761 51.9128 29.1707 52.1067 29.5024L53.0178 31.122C53.0371 31.161 53.0565 31.1805 53.0759 31.2195C52.979 31.2781 52.8627 31.3561 52.7658 31.4342C51.9322 32.0781 51.5057 33.0341 51.5057 34.2829C51.5057 35.4732 51.9322 36.4293 52.7658 37.1317C53.5605 37.7951 54.4716 38.1268 55.4603 38.1268C56.352 38.1268 57.1273 37.9512 57.767 37.6195C57.9027 37.7951 58.116 37.8927 58.368 37.8927H60.7717C61.1982 37.8927 61.5471 37.5415 61.5471 37.1122V31.161C61.5471 29.6781 61.0625 28.5659 60.1126 27.8634C59.2209 27.2195 58.116 26.8878 56.7784 26.8878ZM55.5572 30.5366C55.8092 30.4781 56.0806 30.439 56.352 30.439C56.7784 30.439 57.108 30.5366 57.3406 30.6927C57.4181 30.7512 57.4763 30.8293 57.515 30.9073C56.9529 30.6732 56.2938 30.5366 55.5572 30.5366ZM56.4295 34.9073C56.1 34.9073 55.8479 34.8293 55.6541 34.6927C55.5184 34.5951 55.4796 34.4976 55.4796 34.322C55.4796 34.1073 55.5572 34.0098 55.6541 33.9317C55.8479 33.7951 56.1 33.7171 56.4295 33.7171C57.0886 33.7171 57.4181 33.8927 57.5926 34.0293V34.5756C57.4181 34.7512 57.0886 34.9073 56.4295 34.9073Z" fill="white"/>
<path d="M66.4709 27.6683C68.0798 27.6683 69.3011 28.2146 70.0959 29.3268L68.5257 30.8098C68.0798 30.1463 67.4401 29.8146 66.5872 29.8146C65.8506 29.8146 65.2496 30.0683 64.8038 30.5561C64.3385 31.0439 64.1059 31.6878 64.1059 32.4878C64.1059 33.2878 64.3385 33.9317 64.8038 34.439C65.269 34.9268 65.8699 35.1805 66.5872 35.1805C67.4013 35.1805 68.0604 34.8488 68.5257 34.1854L70.0959 35.6488C69.3011 36.761 68.0992 37.3268 66.4709 37.3268C65.0558 37.3268 63.8927 36.8781 62.9816 35.9805C62.0705 35.0829 61.6246 33.9122 61.6246 32.4878C61.6246 31.0829 62.0705 29.9122 62.9816 29.0146C63.8927 28.1171 65.0558 27.6683 66.4709 27.6683ZM66.4709 26.8878C64.8425 26.8878 63.4856 27.4146 62.4388 28.4683C61.3726 29.522 60.8492 30.8683 60.8492 32.4878C60.8492 34.1268 61.392 35.4732 62.4388 36.5268C63.4856 37.5805 64.8425 38.1073 66.4709 38.1073C68.3512 38.1073 69.7857 37.4244 70.7162 36.0976C70.9488 35.7854 70.8906 35.3366 70.6192 35.0829L69.0491 33.6195C68.9134 33.4829 68.7195 33.4049 68.5257 33.4049C68.5063 33.4049 68.4675 33.4049 68.4481 33.4049C68.2349 33.4244 68.0217 33.5415 67.9054 33.7366C67.5758 34.1854 67.1687 34.4 66.6066 34.4C66.0832 34.4 65.6955 34.2439 65.3853 33.9122C65.0558 33.561 64.9007 33.0927 64.9007 32.5073C64.9007 31.9024 65.0558 31.4537 65.3853 31.1024C65.6955 30.7707 66.0832 30.6146 66.6066 30.6146C67.2075 30.6146 67.5952 30.8098 67.9054 31.2585C68.041 31.4537 68.2349 31.5707 68.4675 31.5902C68.4869 31.5902 68.5257 31.5902 68.5451 31.5902C68.7389 31.5902 68.9328 31.5122 69.0684 31.3756L70.6386 29.8927C70.9294 29.6195 70.9682 29.1902 70.7356 28.8781C69.7857 27.5512 68.3512 26.8878 66.4709 26.8878Z" fill="white"/>
<path d="M75.4073 27.6683C76.5898 27.6683 77.5397 27.9415 78.2957 28.4878C79.0323 29.0342 79.42 29.9317 79.42 31.161V37.1122H77.0163V36.1561C76.3572 36.9366 75.388 37.3463 74.1085 37.3463C73.2944 37.3463 72.5578 37.0732 71.8987 36.5268C71.2396 35.9805 70.9294 35.239 70.9294 34.2829C70.9294 33.2878 71.2396 32.5463 71.8793 32.0585C72.519 31.5707 73.2556 31.3171 74.1085 31.3171C75.4073 31.3171 76.3766 31.6878 77.0163 32.4488V31.2195C77.0163 30.7512 76.8418 30.3805 76.4735 30.0878C76.1052 29.8146 75.6206 29.6781 75.0196 29.6781C74.0116 29.6781 73.1199 30.0488 72.3445 30.7707L71.4334 29.1512C72.4996 28.1561 73.8372 27.6683 75.4073 27.6683ZM75.0778 35.6878C75.9695 35.6878 76.6286 35.4146 77.0163 34.8878V33.7561C76.6286 33.2293 75.9889 32.9561 75.0778 32.9561C74.5932 32.9561 74.1667 33.0732 73.8372 33.3268C73.5076 33.5805 73.3525 33.9122 73.3525 34.3415C73.3525 34.7512 73.5076 35.0829 73.8372 35.3366C74.1667 35.5707 74.5738 35.6878 75.0778 35.6878ZM75.4073 26.8878C73.6433 26.8878 72.1119 27.4341 70.8907 28.5268C70.6193 28.761 70.5417 29.1707 70.7356 29.5024L71.6467 31.122C71.6661 31.161 71.6854 31.1805 71.7048 31.2195C71.6079 31.2781 71.4916 31.3561 71.3947 31.4342C70.5611 32.0781 70.1346 33.0341 70.1346 34.2829C70.1346 35.4732 70.5611 36.4293 71.3947 37.1317C72.1894 37.7951 73.1005 38.1268 74.0892 38.1268C74.9809 38.1268 75.7563 37.9512 76.396 37.6195C76.5317 37.7951 76.7449 37.8927 76.9969 37.8927H79.4006C79.8271 37.8927 80.176 37.5415 80.176 37.1122V31.161C80.176 29.6781 79.6914 28.5659 78.7415 27.8634C77.8692 27.2195 76.7449 26.8878 75.4073 26.8878ZM74.2055 30.5366C74.4575 30.4781 74.7289 30.439 75.0003 30.439C75.4267 30.439 75.7563 30.5366 75.9889 30.6927C76.0664 30.7512 76.1246 30.8293 76.1633 30.9073C75.6012 30.6732 74.9421 30.5366 74.2055 30.5366ZM75.0778 34.9073C74.7482 34.9073 74.4962 34.8293 74.3024 34.6927C74.1667 34.5951 74.1279 34.4976 74.1279 34.322C74.1279 34.1073 74.2055 34.0098 74.3024 33.9317C74.4962 33.7951 74.7482 33.7171 75.0778 33.7171C75.7369 33.7171 76.0664 33.8927 76.2409 34.0293V34.5756C76.047 34.7512 75.7175 34.9073 75.0778 34.9073Z" fill="white"/>
<path d="M89.5777 24.3902V37.1122H87.1546V35.922C86.4179 36.8585 85.4681 37.3268 84.3244 37.3268C83.1419 37.3268 82.1533 36.8976 81.3973 36.039C80.6412 35.1805 80.2535 34.0098 80.2535 32.5073C80.2535 31.0244 80.6412 29.8537 81.3973 28.9756C82.1533 28.0976 83.1225 27.6683 84.3244 27.6683C85.4875 27.6683 86.4373 28.1366 87.1546 29.0732V24.3902H89.5777ZM85.061 35.1805C85.4681 35.1805 85.8558 35.0829 86.2629 34.8878C86.6506 34.6927 86.9607 34.439 87.1546 34.1268V30.8683C86.9607 30.5561 86.6506 30.322 86.2629 30.1073C85.8752 29.9122 85.4681 29.8146 85.061 29.8146C84.3825 29.8146 83.8204 30.0683 83.3939 30.5561C82.9674 31.0439 82.7542 31.7073 82.7542 32.5073C82.7542 33.2878 82.9674 33.9317 83.3939 34.439C83.8204 34.9268 84.3825 35.1805 85.061 35.1805ZM89.5777 23.6098H87.1546C86.7281 23.6098 86.3792 23.961 86.3792 24.3902V27.3951C85.7782 27.0634 85.0804 26.8878 84.3244 26.8878C82.9093 26.8878 81.7268 27.4146 80.8157 28.4683C79.9434 29.4829 79.4781 30.8488 79.4781 32.5073C79.4781 34.2049 79.924 35.5512 80.8157 36.5659C81.7268 37.6 82.9093 38.1073 84.3244 38.1073C85.1385 38.1073 85.8558 37.9122 86.4955 37.522C86.6312 37.7366 86.8638 37.8732 87.1352 37.8732H89.5583C89.9848 37.8732 90.3337 37.522 90.3337 37.0927V24.3902C90.3531 23.961 90.0041 23.6098 89.5777 23.6098ZM85.061 34.4C84.5958 34.4 84.2662 34.2439 83.9754 33.9317C83.6653 33.5805 83.5296 33.1122 83.5296 32.5268C83.5296 31.922 83.6847 31.4537 83.9754 31.1024C84.2662 30.7707 84.5958 30.6341 85.061 30.6341C85.3518 30.6341 85.6232 30.7122 85.9139 30.8488C86.1078 30.9463 86.2629 31.0439 86.3792 31.1805V33.8927C86.2629 34.0098 86.1078 34.1268 85.9139 34.2244C85.6232 34.3415 85.3518 34.4 85.061 34.4Z" fill="white"/>
<path d="M95.1799 27.6683C96.5368 27.6683 97.6611 28.1366 98.4947 29.0732C99.3476 30.0098 99.7741 31.239 99.7741 32.7415V33.2683H92.97C93.0475 33.8732 93.3189 34.3805 93.7841 34.7902C94.2494 35.2 94.8503 35.3951 95.6063 35.3951C96.0134 35.3951 96.4593 35.3171 96.9245 35.1415C97.3897 34.9854 97.7774 34.7512 98.0488 34.4781L99.115 36.039C98.1845 36.8976 96.9245 37.3073 95.3349 37.3073C93.9198 37.3073 92.7568 36.8585 91.8263 35.9805C90.8958 35.0829 90.45 33.9317 90.45 32.4683C90.45 31.1024 90.8958 29.9707 91.7875 29.0342C92.6598 28.1366 93.7841 27.6683 95.1799 27.6683ZM92.9118 31.6293H97.4285C97.3897 31.1024 97.1765 30.6341 96.8082 30.2244C96.4399 29.8146 95.8971 29.6 95.1605 29.6C94.482 29.6 93.9392 29.8146 93.5709 30.2244C93.2026 30.6341 92.97 31.1024 92.9118 31.6293ZM95.1799 26.8878C93.5903 26.8878 92.2527 27.4342 91.2253 28.5073C90.198 29.5805 89.6746 30.9268 89.6746 32.4878C89.6746 34.1463 90.2173 35.5122 91.3029 36.5659C92.3691 37.6 93.726 38.1073 95.3543 38.1073C97.1377 38.1073 98.5916 37.6 99.6578 36.6244C99.9485 36.3707 99.9873 35.922 99.7741 35.6098L98.7079 34.0488H99.7935C100.22 34.0488 100.569 33.6976 100.569 33.2683V32.7415C100.569 31.0439 100.065 29.6195 99.0956 28.5463C98.0682 27.4537 96.75 26.8878 95.1799 26.8878ZM94.0555 30.8488C94.0943 30.8098 94.1137 30.7707 94.1525 30.7317C94.3851 30.4781 94.7146 30.361 95.1799 30.361C95.6645 30.361 96.0134 30.4781 96.246 30.7317C96.2848 30.7707 96.3042 30.8098 96.343 30.8488H94.0555ZM94.1137 34.0488H97.3703C97.1959 34.2049 96.9439 34.322 96.6531 34.4195C96.2654 34.5561 95.8971 34.6342 95.5869 34.6342C95.0248 34.6342 94.5983 34.4976 94.2688 34.2049C94.2106 34.1659 94.1718 34.1073 94.1137 34.0488Z" fill="white"/>
<path d="M111.657 27.6683C112.51 27.6683 113.188 27.9024 113.654 28.3707C114.119 28.839 114.352 29.522 114.352 30.4585V37.1122H111.928V31.2976C111.928 30.322 111.483 29.8341 110.571 29.8341C110.184 29.8341 109.815 29.9512 109.486 30.1659C109.156 30.3805 108.885 30.6341 108.672 30.9073V37.1122H106.229V31.2976C106.229 30.322 105.783 29.8341 104.872 29.8341C104.485 29.8341 104.136 29.9512 103.787 30.1659C103.438 30.3805 103.166 30.6341 102.973 30.9268V37.1122H100.569V27.9024H102.973V29.1122C103.205 28.7805 103.593 28.4683 104.174 28.1561C104.737 27.8439 105.338 27.6878 105.977 27.6878C107.295 27.6878 108.148 28.2537 108.517 29.3659C108.807 28.9171 109.234 28.5073 109.815 28.1756C110.378 27.8439 110.998 27.6683 111.657 27.6683ZM111.657 26.8878C110.862 26.8878 110.106 27.0829 109.428 27.4927C109.156 27.6488 108.904 27.8244 108.672 28.0195C108.168 27.3951 107.334 26.8878 105.977 26.8878C105.221 26.8878 104.485 27.0829 103.806 27.4537C103.767 27.4732 103.709 27.5122 103.67 27.5317C103.535 27.2781 103.283 27.122 102.992 27.122H100.588C100.162 27.122 99.8129 27.4732 99.8129 27.9024V37.1122C99.8129 37.5415 100.162 37.8927 100.588 37.8927H102.992C103.418 37.8927 103.767 37.5415 103.767 37.1122V31.1805C103.884 31.0439 104.039 30.9268 104.213 30.8098C104.426 30.6732 104.64 30.6146 104.872 30.6146C105.008 30.6146 105.241 30.6341 105.338 30.7317C105.415 30.8293 105.473 31.0244 105.473 31.2976V37.1122C105.473 37.5415 105.822 37.8927 106.249 37.8927H108.672C109.098 37.8927 109.447 37.5415 109.447 37.1122V31.1805C109.563 31.0439 109.719 30.9268 109.893 30.8098C110.106 30.6732 110.319 30.6146 110.571 30.6146C110.707 30.6146 110.94 30.6341 111.037 30.7317C111.114 30.8293 111.172 31.0244 111.172 31.2976V37.1122C111.172 37.5415 111.521 37.8927 111.948 37.8927H114.371C114.797 37.8927 115.146 37.5415 115.146 37.1122V30.4585C115.146 29.3268 114.836 28.4293 114.216 27.8244C113.576 27.2 112.723 26.8878 111.657 26.8878Z" fill="white"/>
<path d="M124.412 27.9024L120.109 38.6146C119.799 39.4341 119.353 40 118.791 40.3122C118.229 40.6439 117.511 40.8195 116.639 40.839C116.193 40.839 115.805 40.8 115.437 40.7024L115.805 38.5366C116.038 38.6341 116.29 38.6927 116.561 38.6927C117.201 38.6927 117.628 38.4781 117.841 38.0293L118.19 37.2488L114.468 27.9024H117.046L119.43 34.3024L121.815 27.9024H124.412ZM124.412 27.122H121.815C121.485 27.122 121.194 27.3171 121.098 27.6293L119.43 32.0976L117.763 27.6293C117.647 27.3171 117.356 27.122 117.046 27.122H114.468C114.216 27.122 113.964 27.2585 113.828 27.4732C113.692 27.6878 113.654 27.961 113.751 28.1951L117.356 37.2293L117.143 37.6976C117.104 37.7561 117.046 37.9122 116.581 37.9122C116.406 37.9122 116.271 37.8927 116.135 37.8341C116.038 37.7951 115.922 37.7756 115.825 37.7756C115.689 37.7756 115.573 37.8146 115.456 37.8732C115.243 37.9902 115.108 38.1854 115.069 38.439L114.7 40.6049C114.642 41.0146 114.894 41.3854 115.282 41.4829C115.689 41.5805 116.154 41.639 116.658 41.639H116.678C117.666 41.6 118.5 41.4049 119.178 41.0146C119.896 40.6049 120.458 39.9024 120.846 38.9073L125.13 28.2342C125.168 28.1366 125.207 28.0195 125.207 27.922C125.188 27.4732 124.839 27.122 124.412 27.122Z" fill="white"/>
</g>
<defs>
<clipPath id="clip0">
<rect width="129.103" height="48" fill="white"/>
</clipPath>
</defs>
</svg>
