<svg width="44" height="48" viewBox="0 0 44 48" fill="none" xmlns="http://www.w3.org/2000/svg">
<path d="M22.1551 48C21.3194 48 20.4837 47.7853 19.7258 47.3753L2.87652 38.0632C1.30236 37.1848 0.291796 35.5254 0.272362 33.7098L0.000286162 14.8514C-0.0191478 13.0164 0.952552 11.2984 2.52671 10.4004L2.81822 10.908L2.52671 10.4004L19.4926 0.658871C21.0473 -0.219624 22.9518 -0.219624 24.5066 0.658871L41.4725 10.4004C43.066 11.3179 44.0377 13.0164 43.9989 14.8514L43.7268 33.7293C43.7074 35.5254 42.7162 37.1848 41.1421 38.0632L24.6037 47.3558C23.8458 47.7853 22.9907 48 22.1551 48ZM21.9996 1.14692C21.3388 1.14692 20.6586 1.32262 20.0756 1.6545L3.10973 11.396C1.88538 12.0988 1.14689 13.4263 1.16633 14.8319L1.4384 33.6903C1.45784 35.0764 2.2352 36.3648 3.44011 37.0286L20.2894 46.3406C21.4749 46.9849 22.8741 46.9849 24.0402 46.3211L40.5785 37.0286C41.7834 36.3453 42.5413 35.0764 42.5608 33.6903L42.8328 14.8124C42.8523 13.4068 42.1138 12.0988 40.8894 11.396L23.9235 1.6545C23.3211 1.32262 22.6603 1.14692 21.9996 1.14692Z" fill="white"/>
<path opacity="0.3" d="M21.9995 37.3211C29.341 37.3211 35.2924 31.3514 35.2924 23.9875C35.2924 16.6235 29.341 10.6539 21.9995 10.6539C14.6581 10.6539 8.70667 16.6235 8.70667 23.9875C8.70667 31.3514 14.6581 37.3211 21.9995 37.3211Z" fill="white"/>
<path d="M22.1551 48C21.3194 48 20.4837 47.7853 19.7258 47.3753L2.87652 38.0632C1.30236 37.1848 0.291796 35.5254 0.272362 33.7098L0.000286162 14.8514C-0.0191478 13.0164 0.952552 11.2984 2.52671 10.4004L2.81822 10.908L2.52671 10.4004L19.4926 0.658871C21.0473 -0.219624 22.9518 -0.219624 24.5066 0.658871L41.4725 10.4004C43.066 11.3179 44.0377 13.0164 43.9989 14.8514L43.7268 33.7293C43.7074 35.5254 42.7162 37.1848 41.1421 38.0632L24.6037 47.3558C23.8458 47.7853 22.9907 48 22.1551 48ZM21.9996 1.14692C21.3388 1.14692 20.6586 1.32262 20.0756 1.6545L3.10973 11.396C1.88538 12.0988 1.14689 13.4263 1.16633 14.8319L1.4384 33.6903C1.45784 35.0764 2.2352 36.3648 3.44011 37.0286L20.2894 46.3406C21.4749 46.9849 22.8741 46.9849 24.0402 46.3211L40.5785 37.0286C41.7834 36.3453 42.5413 35.0764 42.5608 33.6903L42.8328 14.8124C42.8523 13.4068 42.1138 12.0988 40.8894 11.396L23.9235 1.6545C23.3211 1.32262 22.6603 1.14692 21.9996 1.14692Z" fill="white"/>
<path d="M22.155 47.8826C21.5719 47.8826 21.0084 47.6288 20.6197 47.1993L7.7155 32.7724C7.54059 32.5772 7.40455 32.3625 7.30738 32.1087L0.622088 14.0703C0.408314 13.5041 0.466616 12.8599 0.758126 12.3328C1.04964 11.8057 1.57435 11.4348 2.17681 11.3176L21.6108 7.60843C21.8635 7.54986 22.1355 7.54986 22.3882 7.60843L41.8222 11.3176C42.4246 11.4348 42.9299 11.8057 43.2409 12.3328C43.5324 12.8599 43.5907 13.5041 43.3769 14.0703L36.6722 32.1282C36.575 32.3625 36.4584 32.5772 36.2835 32.7724L23.7097 47.1798C23.321 47.6288 22.7574 47.8826 22.155 47.8826ZM1.71039 13.6603L8.41512 31.7183C8.45399 31.8159 8.51229 31.9135 8.59003 32.0111L21.4942 46.4184C21.6691 46.6136 21.9023 46.7112 22.1744 46.7112C22.427 46.7112 22.6797 46.5941 22.8546 46.3989L35.4478 31.9916C35.5256 31.9135 35.5839 31.8159 35.6227 31.7183L42.3275 13.6603C42.4246 13.4065 42.4052 13.1332 42.2692 12.8989C42.1331 12.6647 41.9193 12.5085 41.6473 12.4499L22.2133 8.74071C22.0967 8.72119 21.9801 8.72119 21.8829 8.74071L2.44888 12.4499C2.17681 12.5085 1.96303 12.6647 1.827 12.8989C1.63266 13.1332 1.61322 13.4065 1.71039 13.6603Z" fill="white"/>
<path d="M35.5839 32.7724H8.41515C8.10421 32.7724 7.83213 32.6163 7.67666 32.343C7.52119 32.0892 7.52119 31.7573 7.67666 31.5035L21.261 8.23315C21.4165 7.97936 21.6886 7.82318 21.9801 7.82318C22.2716 7.82318 22.5631 7.97936 22.6991 8.23315L36.2835 31.5035C36.439 31.7573 36.439 32.0892 36.2835 32.343C36.1669 32.5967 35.8754 32.7724 35.5839 32.7724ZM8.97874 31.6011H35.0203L21.9995 9.28734L8.97874 31.6011Z" fill="white"/>
<path d="M1.67162 36.306L1.10803 35.2908L7.67672 31.6597L8.24031 32.6944L1.67162 36.306Z" fill="white"/>
<path d="M42.3469 36.345L35.7588 32.6944L36.3224 31.6597L42.9105 35.3103L42.3469 36.345Z" fill="white"/>
<path d="M22.5825 0.560661H21.4165V8.15476H22.5825V0.560661Z" fill="white"/>
</svg>
