<svg width="48" height="48" viewBox="0 0 48 48" fill="none" xmlns="http://www.w3.org/2000/svg">
<path d="M14.9062 3.75979C14.6906 3.75042 14.4748 3.80652 14.2873 3.93777C12.6373 4.95027 11.6247 6.71277 11.5122 8.62527C11.4372 10.0878 11.9247 11.4753 12.8247 12.5628C11.9997 13.3128 11.2503 14.1378 10.6128 15.0003C10.0503 13.3128 8.73719 11.9631 7.01219 11.3631C6.56219 11.2131 6.11249 11.325 5.81249 11.7C4.53749 13.1625 4.08719 15.1506 4.57469 16.9881C5.02469 18.6381 6.18734 20.0256 7.72484 20.7381C7.46234 21.6381 7.27499 22.5376 7.12499 23.4751C6.93749 23.2876 6.71219 23.1 6.44969 22.95C4.87469 21.825 2.85028 21.6004 1.05028 22.2754C0.637779 22.4254 0.337632 22.8376 0.337632 23.2876C0.300132 25.2001 1.23749 27.0378 2.81249 28.1253C3.78749 28.8003 4.95013 29.1756 6.15013 29.1756C6.52513 29.1756 6.90013 29.1378 7.27513 29.0628C7.42513 29.9253 7.64984 30.7501 7.91234 31.5376C7.57484 31.4251 7.19969 31.3501 6.82469 31.3501C4.91219 31.1626 3.03763 31.9881 1.83763 33.4881C1.53763 33.8631 1.49984 34.3501 1.72484 34.7251C2.66234 36.4126 4.35028 37.5378 6.30028 37.6878C6.48778 37.6878 6.63719 37.7251 6.82469 37.7251C8.17469 37.7251 9.45013 37.2751 10.4626 36.4126C11.0251 37.1626 11.6247 37.8756 12.2622 38.5506C12.2247 38.5506 12.1876 38.5879 12.1501 38.5879C10.2751 39.0754 8.81278 40.4631 8.17528 42.3006C8.02528 42.7506 8.13719 43.2003 8.51219 43.5003C9.56219 44.4378 10.9128 44.9256 12.3003 44.9256C12.7878 44.9256 13.3128 44.8506 13.8003 44.7381C15.2628 44.3256 16.4998 43.3875 17.2873 42.075C18.4498 42.6375 19.6876 43.0501 20.9626 43.3501C21.0376 43.3876 21.1498 43.3875 21.2248 43.3875C21.7498 43.3875 22.2 43.0504 22.3125 42.5254C22.425 41.9629 22.0497 41.3629 21.4497 41.2129C14.2872 39.5629 9.26219 33.2253 9.26219 25.8753C9.26219 21.1128 11.4378 16.5756 15.1128 13.6131C15.1128 13.6131 15.7498 13.1254 15.9748 12.9004C17.1373 11.9254 17.8122 10.4625 17.8872 8.88748C17.9622 6.97498 17.1001 5.13762 15.5251 3.97512C15.3376 3.84387 15.1219 3.76917 14.9062 3.75979ZM33.0798 3.81106C32.8595 3.81575 32.6436 3.88123 32.4748 4.01248C30.9373 5.17498 30.0378 6.97556 30.1128 8.92556C30.1878 10.4631 30.8626 11.9253 32.0251 12.9378C32.2876 13.1628 32.8872 13.6504 32.8872 13.6504C36.5622 16.6129 38.7378 21.1501 38.7378 25.9126C38.7378 33.2626 33.7503 39.6003 26.5503 41.2503C25.9503 41.4003 25.5748 42.0001 25.7248 42.6001C25.8373 43.1251 26.325 43.4629 26.8125 43.4629C26.8875 43.4629 26.9997 43.4631 27.0747 43.4256C28.3872 43.1256 29.5875 42.6754 30.75 42.1504C31.5 43.4254 32.7378 44.4003 34.2378 44.8128C34.7253 44.9628 35.2503 45.0003 35.7378 45.0003C37.1253 45.0003 38.4751 44.5125 39.5251 43.575C39.8626 43.275 40.0128 42.7878 39.8628 42.3753C39.2253 40.5378 37.7622 39.1501 35.8872 38.6626C35.8497 38.6626 35.8126 38.6253 35.7751 38.6253C36.4501 37.9503 37.0497 37.2756 37.5747 36.4881C38.5872 37.3131 39.8626 37.8006 41.2126 37.8006C41.3626 37.8006 41.5503 37.8 41.7378 37.7625C43.6503 37.6125 45.375 36.4881 46.3125 34.8006C46.5375 34.3881 46.4997 33.9003 46.1997 33.5628C44.9997 32.0628 43.1251 31.2756 41.2126 31.4256C40.8376 31.4631 40.4625 31.5381 40.125 31.6131C40.3875 30.7881 40.6122 29.9625 40.7622 29.1375C41.0997 29.175 41.4748 29.2129 41.8498 29.2129C43.0123 29.2129 44.175 28.8751 45.1875 28.1626C46.7625 27.0376 47.6998 25.2375 47.6623 23.325C47.6623 22.875 47.3622 22.4628 46.9497 22.3128C45.1497 21.6378 43.1253 21.8631 41.5503 22.9881C41.3253 23.1381 41.1 23.325 40.875 23.5125C40.7625 22.575 40.5376 21.6754 40.2751 20.7754C41.8126 20.0629 42.9753 18.7129 43.4253 17.0254C43.9128 15.1504 43.4625 13.2006 42.1875 11.7381C41.8875 11.4006 41.4003 11.2504 40.9878 11.4004C39.2628 12.0004 37.9497 13.3501 37.3872 15.0376C36.7122 14.1751 36.0003 13.3501 35.1753 12.6001C36.0753 11.5126 36.5628 10.1251 36.4878 8.66262C36.4128 6.75012 35.3626 4.98762 33.7126 3.97512C33.5251 3.86262 33.3001 3.80637 33.0798 3.81106ZM14.8498 6.37527C15.4123 7.05027 15.7128 7.91277 15.6753 8.81277C15.6378 9.71277 15.2623 10.5381 14.6623 11.1756C14.0998 10.5006 13.8001 9.63806 13.8376 8.73806C13.8376 7.83806 14.2123 7.01277 14.8498 6.37527ZM33.1875 6.37527C33.825 6.97527 34.2003 7.80056 34.2378 8.73806C34.2753 9.63806 33.9748 10.5006 33.4123 11.1756C32.7748 10.5381 32.4003 9.75027 32.3628 8.81277C32.3253 7.91277 32.625 7.05027 33.1875 6.37527ZM7.05028 13.8753C7.80028 14.3253 8.32513 15.0753 8.58763 15.9378C8.81263 16.8378 8.73719 17.7381 8.32469 18.4881C7.57469 18.0381 7.04984 17.3256 6.78734 16.4256C6.56234 15.5256 6.63778 14.6253 7.05028 13.8753ZM40.9878 13.9126C41.4003 14.7001 41.5125 15.6004 41.25 16.4629C40.9875 17.3254 40.4626 18.0379 39.7126 18.5254C39.3001 17.7379 39.1872 16.8376 39.4497 15.9751C39.6747 15.0751 40.2378 14.3626 40.9878 13.9126ZM3.06224 24.1599C3.82257 24.1276 4.59374 24.3282 5.24999 24.7876C5.99999 25.3126 6.48778 26.0631 6.67528 26.9256C5.77528 27.0756 4.91234 26.85 4.16234 26.325C3.41234 25.8 2.92528 25.0503 2.73778 24.1878C2.84559 24.1737 2.95362 24.1646 3.06224 24.1599ZM44.633 24.1819C44.8522 24.1737 45.0753 24.1876 45.3003 24.2251C45.1128 25.0876 44.625 25.8381 43.875 26.3631C43.125 26.8881 42.2628 27.1129 41.3628 26.9629C41.5503 26.1004 42.0373 25.35 42.7873 24.825C43.3498 24.4312 43.9756 24.2065 44.633 24.1819ZM41.6982 33.625C42.476 33.6322 43.2142 33.8908 43.8376 34.3501C43.2376 34.9876 42.4497 35.4001 41.5122 35.4751C40.6122 35.5501 39.7498 35.2875 39.0373 34.7625C39.6373 34.125 40.4628 33.7125 41.3628 33.6375C41.4753 33.6281 41.5871 33.624 41.6982 33.625ZM6.30028 33.6631C6.41234 33.6621 6.52469 33.6662 6.63719 33.6756C7.53719 33.7506 8.36263 34.1631 8.96263 34.8006C8.28763 35.3256 7.38778 35.5875 6.48778 35.5125C5.58778 35.4375 4.76234 35.025 4.16234 34.3875C4.75296 33.9281 5.51585 33.6703 6.30028 33.6631ZM34.3469 40.6592C34.673 40.6561 35.0013 40.7021 35.3247 40.8006C36.1872 41.0256 36.9372 41.5879 37.3872 42.3379C36.5997 42.7504 35.7001 42.8626 34.8376 42.6001C33.9376 42.3751 33.2251 41.8128 32.7751 41.0628C33.2673 40.805 33.8035 40.6643 34.3469 40.6592ZM13.7168 40.6761C14.2661 40.6793 14.7934 40.805 15.2622 41.0628C14.8122 41.8128 14.0622 42.3751 13.1997 42.6001C12.2997 42.8251 11.4001 42.7504 10.6501 42.3379C11.1001 41.5879 11.8501 41.0631 12.7126 40.8006C13.0501 40.7162 13.3872 40.6741 13.7168 40.6761Z" fill="#FFB800"/>
<path d="M28.6797 29.0204V31.0004H19.3917V29.4344L24.3957 24.6824C24.9597 24.1424 25.3377 23.6744 25.5297 23.2784C25.7337 22.8704 25.8357 22.4684 25.8357 22.0724C25.8357 21.4844 25.6377 21.0344 25.2417 20.7224C24.8457 20.4104 24.2637 20.2544 23.4957 20.2544C22.2117 20.2544 21.2277 20.6924 20.5437 21.5684L18.9057 20.3084C19.3977 19.6484 20.0577 19.1384 20.8857 18.7784C21.7257 18.4064 22.6617 18.2204 23.6937 18.2204C25.0617 18.2204 26.1537 18.5444 26.9697 19.1924C27.7857 19.8404 28.1937 20.7224 28.1937 21.8384C28.1937 22.5224 28.0497 23.1644 27.7617 23.7644C27.4737 24.3644 26.9217 25.0484 26.1057 25.8164L22.7397 29.0204H28.6797Z" fill="#FFB800"/>
</svg>
