<svg width="48" height="48" viewBox="0 0 48 48" fill="none" xmlns="http://www.w3.org/2000/svg">
<path d="M14.9063 3.75979C14.6906 3.75042 14.4749 3.80652 14.2874 3.93777C12.6374 4.95027 11.6247 6.71277 11.5122 8.62527C11.4372 10.0878 11.9247 11.4753 12.8247 12.5628C11.9997 13.3128 11.2503 14.1378 10.6128 15.0003C10.0503 13.3128 8.73722 11.9631 7.01222 11.3631C6.56222 11.2131 6.11252 11.325 5.81252 11.7C4.53752 13.1625 4.08722 15.1506 4.57472 16.9881C5.02472 18.6381 6.18737 20.0256 7.72487 20.7381C7.46237 21.6381 7.27502 22.5376 7.12502 23.4751C6.93752 23.2876 6.71222 23.1 6.44972 22.95C4.87472 21.825 2.85031 21.6004 1.05031 22.2754C0.637809 22.4254 0.337663 22.8376 0.337663 23.2876C0.300163 25.2001 1.23752 27.0378 2.81252 28.1253C3.78752 28.8003 4.95016 29.1756 6.15016 29.1756C6.52516 29.1756 6.90016 29.1378 7.27516 29.0628C7.42516 29.9253 7.64987 30.7501 7.91237 31.5376C7.57487 31.4251 7.19972 31.3501 6.82472 31.3501C4.91222 31.1626 3.03766 31.9881 1.83766 33.4881C1.53766 33.8631 1.49987 34.3501 1.72487 34.7251C2.66237 36.4126 4.35031 37.5378 6.30031 37.6878C6.48781 37.6878 6.63722 37.7251 6.82472 37.7251C8.17472 37.7251 9.45016 37.2751 10.4627 36.4126C11.0252 37.1626 11.6247 37.8756 12.2622 38.5506C12.2247 38.5506 12.1877 38.5879 12.1502 38.5879C10.2752 39.0754 8.81281 40.4631 8.17531 42.3006C8.02531 42.7506 8.13722 43.2003 8.51222 43.5003C9.56222 44.4378 10.9128 44.9256 12.3003 44.9256C12.7878 44.9256 13.3128 44.8506 13.8003 44.7381C15.2628 44.3256 16.4999 43.3875 17.2874 42.075C18.4499 42.6375 19.6877 43.0501 20.9627 43.3501C21.0377 43.3876 21.1499 43.3875 21.2249 43.3875C21.7499 43.3875 22.2 43.0504 22.3125 42.5254C22.425 41.9629 22.0497 41.3629 21.4497 41.2129C14.2872 39.5629 9.26222 33.2253 9.26222 25.8753C9.26222 21.1128 11.4378 16.5756 15.1128 13.6131C15.1128 13.6131 15.7499 13.1254 15.9749 12.9004C17.1374 11.9254 17.8122 10.4625 17.8872 8.88748C17.9622 6.97498 17.1002 5.13762 15.5252 3.97512C15.3377 3.84387 15.1219 3.76917 14.9063 3.75979ZM33.0798 3.81106C32.8595 3.81575 32.6436 3.88123 32.4749 4.01248C30.9374 5.17498 30.0378 6.97556 30.1128 8.92556C30.1878 10.4631 30.8627 11.9253 32.0252 12.9378C32.2877 13.1628 32.8872 13.6504 32.8872 13.6504C36.5622 16.6129 38.7378 21.1501 38.7378 25.9126C38.7378 33.2626 33.7503 39.6003 26.5503 41.2503C25.9503 41.4003 25.5749 42.0001 25.7249 42.6001C25.8374 43.1251 26.325 43.4629 26.8125 43.4629C26.8875 43.4629 26.9997 43.4631 27.0747 43.4256C28.3872 43.1256 29.5875 42.6754 30.75 42.1504C31.5 43.4254 32.7378 44.4003 34.2378 44.8128C34.7253 44.9628 35.2503 45.0003 35.7378 45.0003C37.1253 45.0003 38.4752 44.5125 39.5252 43.575C39.8627 43.275 40.0128 42.7878 39.8628 42.3753C39.2253 40.5378 37.7622 39.1501 35.8872 38.6626C35.8497 38.6626 35.8127 38.6253 35.7752 38.6253C36.4502 37.9503 37.0497 37.2756 37.5747 36.4881C38.5872 37.3131 39.8627 37.8006 41.2127 37.8006C41.3627 37.8006 41.5503 37.8 41.7378 37.7625C43.6503 37.6125 45.375 36.4881 46.3125 34.8006C46.5375 34.3881 46.4997 33.9003 46.1997 33.5628C44.9997 32.0628 43.1252 31.2756 41.2127 31.4256C40.8377 31.4631 40.4625 31.5381 40.125 31.6131C40.3875 30.7881 40.6122 29.9625 40.7622 29.1375C41.0997 29.175 41.4749 29.2129 41.8499 29.2129C43.0124 29.2129 44.175 28.8751 45.1875 28.1626C46.7625 27.0376 47.6999 25.2375 47.6624 23.325C47.6624 22.875 47.3622 22.4628 46.9497 22.3128C45.1497 21.6378 43.1253 21.8631 41.5503 22.9881C41.3253 23.1381 41.1 23.325 40.875 23.5125C40.7625 22.575 40.5377 21.6754 40.2752 20.7754C41.8127 20.0629 42.9753 18.7129 43.4253 17.0254C43.9128 15.1504 43.4625 13.2006 42.1875 11.7381C41.8875 11.4006 41.4003 11.2504 40.9878 11.4004C39.2628 12.0004 37.9497 13.3501 37.3872 15.0376C36.7122 14.1751 36.0003 13.3501 35.1753 12.6001C36.0753 11.5126 36.5628 10.1251 36.4878 8.66262C36.4128 6.75012 35.3627 4.98762 33.7127 3.97512C33.5252 3.86262 33.3002 3.80637 33.0798 3.81106ZM14.8499 6.37527C15.4124 7.05027 15.7128 7.91277 15.6753 8.81277C15.6378 9.71277 15.2624 10.5381 14.6624 11.1756C14.0999 10.5006 13.8002 9.63806 13.8377 8.73806C13.8377 7.83806 14.2124 7.01277 14.8499 6.37527ZM33.1875 6.37527C33.825 6.97527 34.2003 7.80056 34.2378 8.73806C34.2753 9.63806 33.9749 10.5006 33.4124 11.1756C32.7749 10.5381 32.4003 9.75027 32.3628 8.81277C32.3253 7.91277 32.625 7.05027 33.1875 6.37527ZM7.05031 13.8753C7.80031 14.3253 8.32516 15.0753 8.58766 15.9378C8.81266 16.8378 8.73722 17.7381 8.32472 18.4881C7.57472 18.0381 7.04987 17.3256 6.78737 16.4256C6.56237 15.5256 6.63781 14.6253 7.05031 13.8753ZM40.9878 13.9126C41.4003 14.7001 41.5125 15.6004 41.25 16.4629C40.9875 17.3254 40.4627 18.0379 39.7127 18.5254C39.3002 17.7379 39.1872 16.8376 39.4497 15.9751C39.6747 15.0751 40.2378 14.3626 40.9878 13.9126ZM3.06227 24.1599C3.8226 24.1276 4.59377 24.3282 5.25002 24.7876C6.00002 25.3126 6.48781 26.0631 6.67531 26.9256C5.77531 27.0756 4.91237 26.85 4.16237 26.325C3.41237 25.8 2.92531 25.0503 2.73781 24.1878C2.84562 24.1737 2.95365 24.1646 3.06227 24.1599ZM44.6331 24.1819C44.8522 24.1737 45.0753 24.1876 45.3003 24.2251C45.1128 25.0876 44.625 25.8381 43.875 26.3631C43.125 26.8881 42.2628 27.1129 41.3628 26.9629C41.5503 26.1004 42.0374 25.35 42.7874 24.825C43.3499 24.4312 43.9756 24.2065 44.6331 24.1819ZM41.6983 33.625C42.476 33.6322 43.2142 33.8908 43.8377 34.3501C43.2377 34.9876 42.4497 35.4001 41.5122 35.4751C40.6122 35.5501 39.7499 35.2875 39.0374 34.7625C39.6374 34.125 40.4628 33.7125 41.3628 33.6375C41.4753 33.6281 41.5871 33.624 41.6983 33.625ZM6.30031 33.6631C6.41237 33.6621 6.52472 33.6662 6.63722 33.6756C7.53722 33.7506 8.36266 34.1631 8.96266 34.8006C8.28766 35.3256 7.38781 35.5875 6.48781 35.5125C5.58781 35.4375 4.76237 35.025 4.16237 34.3875C4.75299 33.9281 5.51588 33.6703 6.30031 33.6631ZM34.3469 40.6592C34.673 40.6561 35.0013 40.7021 35.3247 40.8006C36.1872 41.0256 36.9372 41.5879 37.3872 42.3379C36.5997 42.7504 35.7002 42.8626 34.8377 42.6001C33.9377 42.3751 33.2252 41.8128 32.7752 41.0628C33.2673 40.805 33.8035 40.6643 34.3469 40.6592ZM13.7168 40.6761C14.2661 40.6793 14.7935 40.805 15.2622 41.0628C14.8122 41.8128 14.0622 42.3751 13.1997 42.6001C12.2997 42.8251 11.4002 42.7504 10.6502 42.3379C11.1002 41.5879 11.8502 41.0631 12.7127 40.8006C13.0502 40.7162 13.3872 40.6741 13.7168 40.6761Z" fill="#FFB800"/>
<path d="M24.9177 23.6024C26.0817 23.7464 26.9697 24.1424 27.5817 24.7904C28.1937 25.4384 28.4997 26.2484 28.4997 27.2204C28.4997 27.9524 28.3137 28.6184 27.9417 29.2184C27.5697 29.8184 27.0057 30.2984 26.2497 30.6584C25.5057 31.0064 24.5937 31.1804 23.5137 31.1804C22.6137 31.1804 21.7437 31.0544 20.9037 30.8024C20.0757 30.5384 19.3677 30.1784 18.7797 29.7224L19.7877 27.9044C20.2437 28.2884 20.7957 28.5944 21.4437 28.8224C22.1037 29.0384 22.7817 29.1464 23.4777 29.1464C24.3057 29.1464 24.9537 28.9784 25.4217 28.6424C25.9017 28.2944 26.1417 27.8264 26.1417 27.2384C26.1417 26.6504 25.9137 26.1944 25.4577 25.8704C25.0137 25.5344 24.3297 25.3664 23.4057 25.3664H22.2537V23.7644L25.1157 20.3624H19.3917V18.4004H27.9777V19.9664L24.9177 23.6024Z" fill="#FFB800"/>
</svg>
