<svg width="24" height="24" viewBox="0 0 24 24" fill="none" xmlns="http://www.w3.org/2000/svg">
<path d="M11 1C8.80267 1 7 2.80267 7 5V17.5C7 20.5256 9.47442 23 12.5 23C15.5256 23 18 20.5256 18 17.5V6H16V17.5C16 19.4444 14.4444 21 12.5 21C10.5556 21 9 19.4444 9 17.5V5C9 3.88333 9.88333 3 11 3C12.1167 3 13 3.88333 13 5V15.5C13 15.7869 12.7869 16 12.5 16C12.2131 16 12 15.7869 12 15.5V6H10V15.5C10 16.8691 11.1309 18 12.5 18C13.8691 18 15 16.8691 15 15.5V5C15 2.80267 13.1973 1 11 1Z" fill="#212121"/>
</svg>
