<svg width="24" height="24" viewBox="0 0 24 24" fill="none" xmlns="http://www.w3.org/2000/svg">
<path d="M5 3V4V10V12V21H13.5C16.5256 21 19 18.5256 19 15.5C19 13.3252 17.7196 11.4398 15.877 10.5488C16.516 9.84202 17 8.82832 17 7.5C17 5.41667 15.8108 4.09973 14.6973 3.54297C13.5838 2.98621 12.5 3 12.5 3H5ZM7 5H12.5C12.5 5 13.1662 5.01379 13.8027 5.33203C14.4392 5.65027 15 6.08333 15 7.5C15 8.91667 14.4392 9.34973 13.8027 9.66797C13.1662 9.98621 12.5 10 12.5 10H7V5ZM7 12H12.5H12.5996H13.5C15.4444 12 17 13.5556 17 15.5C17 17.4444 15.4444 19 13.5 19H7V12Z" fill="#212121"/>
</svg>
