<svg width="24" height="24" viewBox="0 0 24 24" fill="none" xmlns="http://www.w3.org/2000/svg">
<path d="M12 2C11.7348 2.00003 11.4805 2.10539 11.2929 2.29292C11.1054 2.48045 11 2.73479 11 3V5H4C3.73479 5.00003 3.48045 5.10539 3.29292 5.29292C3.10539 5.48045 3.00003 5.73479 3 6V20C3.00003 20.2652 3.10539 20.5195 3.29292 20.7071C3.48045 20.8946 3.73479 21 4 21H12H20C20.2652 21 20.5195 20.8946 20.7071 20.7071C20.8946 20.5195 21 20.2652 21 20V3C21 2.73479 20.8946 2.48045 20.7071 2.29292C20.5195 2.10539 20.2652 2.00003 20 2H12ZM13 4H19V6H15V8H19V15H15V17H19V19H13V6V4ZM5 7H11V9H7V11H11V15H7V17H11V19H5V7Z" fill="#212121"/>
</svg>
