<svg width="24" height="24" viewBox="0 0 24 24" fill="none" xmlns="http://www.w3.org/2000/svg">
<path d="M6 2C4.90575 2 4 2.90575 4 4V9C2.895 9 2 9.895 2 11V16C2 17.105 2.895 18 4 18V20C4 21.0943 4.90575 22 6 22H18C19.0943 22 20 21.0943 20 20V7L15 2H6ZM6 4H14V8H18V20H6V18H14C15.105 18 16 17.105 16 16V11C16 9.895 15.105 9 14 9H6V4ZM6.03516 11C7.20716 11.001 7.67328 11.537 7.86328 12H6C5.118 11.987 5 12.8569 5 13.0859V13.9141C5 14.1451 5.20678 15.01 6.17578 15C6.45878 14.997 6.976 14.8363 7 14.8223L6.97852 14H6L6.02148 13H8V15.3809C7.94 15.4369 7.29142 15.961 6.10742 15.998C5.78542 16.008 4.132 16.0381 4 13.9141V13.0918C4 12.7368 3.95816 10.998 6.03516 11ZM9 11H10V16H9V11ZM11 11H14V12H12V13H13.5996V14H12V16H11V11Z" fill="black"/>
</svg>
