<svg width="24" height="24" viewBox="0 0 24 24" fill="none" xmlns="http://www.w3.org/2000/svg">
<path d="M6 2C4.90575 2 4 2.90575 4 4V9C2.895 9 2 9.895 2 11V16C2 17.105 2.895 18 4 18V20C4 21.0943 4.90575 22 6 22H18C19.0943 22 20 21.0943 20 20V7L15 2H6ZM6 4H14V8H18V9H6V4ZM4.02539 11H5.27344L5.99805 12.7168L6.72461 11H7.9707L6.70312 13.4785L8 16H6.73828L5.99805 14.252L5.26172 16H4L5.29492 13.4785L4.02539 11ZM9 11H10V15H12V16H9V11ZM14.4902 11C15.9132 11.041 16 12.2829 16 12.5039H15.0312C15.0312 12.4009 15.0487 11.8066 14.4727 11.8066C14.2977 11.8066 13.9055 11.8842 13.9355 12.3672C13.9645 12.8102 14.5473 13.0194 14.6543 13.0664C14.8783 13.1484 15.9871 13.6424 15.9961 14.6504C15.9981 14.8644 15.9428 15.985 14.5098 16C12.9508 16.017 12.8457 14.6754 12.8457 14.3984H13.8203C13.8203 14.5454 13.8328 15.2562 14.5098 15.2012C14.9168 15.1672 15.0055 14.8743 15.0195 14.6562C15.0425 14.2893 14.6923 14.0686 14.3223 13.8906C13.8023 13.6406 12.9798 13.3334 12.9648 12.3594C12.9518 11.4824 13.5962 10.975 14.4902 11ZM6 18H18V20H6V18Z" fill="black"/>
</svg>
