<svg width="24" height="24" viewBox="0 0 24 24" fill="none" xmlns="http://www.w3.org/2000/svg">
<path d="M6 2C4.90575 2 4 2.90575 4 4V9C2.895 9 2 9.895 2 11V16C2 17.105 2.895 18 4 18V20C4 21.0943 4.90575 22 6 22H18C19.0943 22 20 21.0943 20 20V16V11V7L15 2H6ZM6 4H14V8H18V9H6V4ZM16 11C17.105 11 18 11.895 18 13H17C17 12.449 16.551 12 16 12C15.449 12 15 12.449 15 13V14C15 14.551 15.449 15 16 15C16.551 15 17 14.551 17 14H18C18 15.105 17.105 16 16 16C14.895 16 14 15.105 14 14V13C14 11.895 14.895 11 16 11ZM4 11.0234H5.62891C7.21191 11.0234 8 11.9749 8 13.1289V13.9004C8 15.0684 7.20923 16 5.61523 16H4V11.0234ZM11 11.0645C12.864 11.0345 13 12.8424 13 13.1914V14C13 14.342 12.9138 16.1015 11.0078 16.0605C8.96681 16.0185 9 14.342 9 14V13.1914C9 12.8404 9.167 11.0935 11 11.0645ZM11.002 11.8867C10.057 11.9057 10 12.9535 10 13.1855V14C10 14.222 10.1547 15.2592 11.0117 15.2422C11.8337 15.2272 12 14.221 12 14V13.1855C12 12.9535 11.888 11.8687 11.002 11.8867ZM5 12.0234V15H5.61523C6.24723 15 7 14.8084 7 13.9004V13.1289C7 12.2149 6.25491 12.0234 5.62891 12.0234H5ZM6 18H18V20H6V18Z" fill="black"/>
</svg>
