<svg width="24" height="24" viewBox="0 0 24 24" fill="none" xmlns="http://www.w3.org/2000/svg">
<path d="M7 2C5.90575 2 5 2.90575 5 4V9H3C1.895 9 1 9.895 1 11V16C1 17.105 1.895 18 3 18H5V20C5 21.0943 5.90575 22 7 22H19C20.0943 22 21 21.0943 21 20V7L16 2H7ZM7 4H15V8H19V20H7V18H15C16.105 18 17 17.105 17 16V11C17 9.895 16.105 9 15 9H7V4ZM3 11H4H4.5C5.328 11 6 11.672 6 12.5C6 13.148 5.58772 13.6943 5.01172 13.9043L6.05859 16H4.94141L4 14.1172V16H3V14V11ZM8.3457 11H9.64648L11 16H9.9375L9.67969 15H8.30859L8.05273 16H7L8.3457 11ZM12 11H13H13.5C14.328 11 15 11.672 15 12.5C15 13.148 14.5877 13.6943 14.0117 13.9043L15.0586 16H13.9414L13 14.1172V16H12V14V11ZM4 12V13H4.5C4.776 13 5 12.776 5 12.5C5 12.224 4.776 12 4.5 12H4ZM13 12V13H13.5C13.776 13 14 12.776 14 12.5C14 12.224 13.776 12 13.5 12H13ZM8.99414 12.3535L8.56836 14H9.41992L8.99414 12.3535Z" fill="black"/>
</svg>
