<svg width="24" height="24" viewBox="0 0 24 24" fill="none" xmlns="http://www.w3.org/2000/svg">
<path d="M6 2C4.90575 2 4 2.90575 4 4V9C2.895 9 2 9.895 2 11V16C2 17.105 2.895 18 4 18V20C4 21.0943 4.90575 22 6 22H18C19.0943 22 20 21.0943 20 20V7L15 2H6ZM6 4H14V8H18V20H6V18H13C14.105 18 15 17.105 15 16V11C15 9.895 14.105 9 13 9H6V4ZM4 11H7V12L5.32422 15H7V16H4V15L5.70508 12H4V11ZM7.99414 11H9V16H7.99414V11ZM10 11H11H11.5C12.328 11 13 11.672 13 12.5C13 13.328 12.328 14 11.5 14H11V16H10V14V11ZM11 12V13H11.5C11.776 13 12 12.776 12 12.5C12 12.224 11.776 12 11.5 12H11Z" fill="black"/>
</svg>
