<svg width="24" height="24" viewBox="0 0 24 24" fill="none" xmlns="http://www.w3.org/2000/svg">
<path d="M6 2C4.90575 2 4 2.90575 4 4V9C2.895 9 2 9.895 2 11V16C2 17.105 2.895 18 4 18V20C4 21.0943 4.90575 22 6 22H18C19.0943 22 20 21.0943 20 20V7L15 2H6ZM6 4H14V8H18V20H6V18H15C16.105 18 17 17.105 17 16V11C17 9.895 16.105 9 15 9H6V4ZM4 11H5.5C6.328 11 7 11.672 7 12.5C7 13.328 6.328 14 5.5 14H5V16H4V11ZM8 11H9.5C10.328 11 11 11.672 11 12.5C11 13.328 10.328 14 9.5 14H9V16H8V11ZM12 11H15V12H14V16H13V12H12V11ZM5 12V13H5.5C5.776 13 6 12.776 6 12.5C6 12.224 5.776 12 5.5 12H5ZM9 12V13H9.5C9.776 13 10 12.776 10 12.5C10 12.224 9.776 12 9.5 12H9Z" fill="black"/>
</svg>
