<svg width="24" height="24" viewBox="0 0 24 24" fill="none" xmlns="http://www.w3.org/2000/svg">
<path d="M6 2C4.90575 2 4 2.90575 4 4V9C2.895 9 2 9.895 2 11V16C2 17.105 2.895 18 4 18V20C4 21.0943 4.90575 22 6 22H18C19.0943 22 20 21.0943 20 20V7L15 2H6ZM6 4H14V8H18V9H6V4ZM4 11H5.5C6.328 11 7 11.672 7 12.5C7 13.328 6.328 14 5.5 14H5V16H4V11ZM13 11H16V12H14V13H15.5996V14H14V16H13V11ZM8 11.0234H9.62891C11.2109 11.0234 12 11.9749 12 13.1289V13.9004C12 15.0684 11.2092 16 9.61523 16H8V11.0234ZM5 12V13H5.5C5.776 13 6 12.776 6 12.5C6 12.224 5.776 12 5.5 12H5ZM9 12.0234V15H9.61523C10.2472 15 11 14.8084 11 13.9004V13.1289C11 12.2149 10.2549 12.0234 9.62891 12.0234H9ZM6 18H18V20H6V18Z" fill="black"/>
</svg>
