<svg width="24" height="24" viewBox="0 0 24 24" fill="none" xmlns="http://www.w3.org/2000/svg">
<path d="M7 2C5.90575 2 5 2.90575 5 4V9H4C2.895 9 2 9.895 2 11V16C2 17.105 2.895 18 4 18H5V20C5 21.0943 5.90575 22 7 22H19C20.0943 22 21 21.0943 21 20V7L16 2H7ZM7 4H15V8H19V9H7V4ZM4.02539 11H5.27344L5.99805 12.7168L6.72461 11H7.9707L6.70312 13.4785L8 16H6.73828L5.99805 14.252L5.26172 16H4L5.29492 13.4785L4.02539 11ZM15 11H16V15H18V16H15V11ZM9 11.0234H10.457L11.502 14.623L12.543 11.0234H14V16H13.998H13V14.6523L13.1035 12.5781L11.877 16H11.1172L9.89844 12.5781L10 14.6523V16H9V11.0234ZM7 18H19V20H7V18Z" fill="black"/>
</svg>
