<svg width="24" height="24" viewBox="0 0 24 24" fill="none" xmlns="http://www.w3.org/2000/svg">
<path d="M6 2C4.90575 2 4 2.90575 4 4V9C2.895 9 2 9.895 2 11V16C2 17.105 2.895 18 4 18V20C4 21.0943 4.90575 22 6 22H18C19.0943 22 20 21.0943 20 20V7L15 2H6ZM6 4H14V8H18V9H6V4ZM4 11H5.5C6.328 11 7 11.672 7 12.5C7 13.328 6.328 14 5.5 14H5V16H4V11ZM11 11H12V16H10.8457L9 12.7363V16H8V11.0234H9.1543L11 14.2676V11ZM15.0352 11.002C16.2072 11.003 16.6733 11.539 16.8633 12.002H15C14.118 11.989 14 12.8569 14 13.0859V13.9141C14 14.1461 14.2068 15.012 15.1758 15.002C15.4588 14.999 15.976 14.8363 16 14.8223L15.9785 14H15L15.0215 13H17V15.3809C16.94 15.4369 16.2914 15.961 15.1074 15.998C14.7854 16.008 13.132 16.0381 13 13.9141V13.0918C13 12.7368 12.9582 11 15.0352 11.002ZM5 12V13H5.5C5.776 13 6 12.776 6 12.5C6 12.224 5.776 12 5.5 12H5ZM6 18H18V20H6V18Z" fill="black"/>
</svg>
