<svg width="24" height="24" viewBox="0 0 24 24" fill="none" xmlns="http://www.w3.org/2000/svg">
<path d="M6 2C4.895 2 4 2.895 4 4V9H3C1.895 9 1 9.895 1 11V16C1 17.105 1.895 18 3 18H4V20C4 21.105 4.895 22 6 22H18C19.105 22 20 21.105 20 20V7L15 2H6ZM6 4H14V8H18V9H6V4ZM5 11C6.105 11 7 11.895 7 13H6C6 12.449 5.551 12 5 12C4.449 12 4 12.449 4 13V14C4 14.551 4.449 15 5 15C5.551 15 6 14.551 6 14H7C7 15.105 6.105 16 5 16C3.895 16 3 15.105 3 14V13C3 11.895 3.895 11 5 11ZM9.64453 11C11.0675 11.041 11.1543 12.2829 11.1543 12.5039H10.1875C10.1875 12.4009 10.2049 11.8066 9.62891 11.8066C9.45391 11.8066 9.05984 11.8842 9.08984 12.3672C9.11884 12.8102 9.70355 13.0194 9.81055 13.0664C10.0345 13.1484 11.1414 13.6424 11.1504 14.6504C11.1524 14.8644 11.0971 15.985 9.66406 16C8.10506 16.017 8 14.6754 8 14.3984H8.97461C8.97461 14.5454 8.98706 15.2562 9.66406 15.2012C10.0711 15.1672 10.1598 14.8743 10.1738 14.6562C10.1968 14.2893 9.84656 14.0686 9.47656 13.8906C8.95656 13.6406 8.13414 13.3334 8.11914 12.3594C8.10614 11.4824 8.75053 10.975 9.64453 11ZM12 11H13.0527L13.9922 14.6465L14.9375 11H16L14.6465 16H13.3457L12 11ZM6 18H18V20H6V18Z" fill="black"/>
</svg>
