<svg width="24" height="24" viewBox="0 0 24 24" fill="none" xmlns="http://www.w3.org/2000/svg">
<path d="M6 2C4.895 2 4 2.895 4 4V9C2.895 9 2 9.895 2 11V16C2 17.105 2.895 18 4 18V20C4 21.105 4.895 22 6 22H18C19.105 22 20 21.105 20 20V7L15 2H6ZM6 4H14V8H18V9H6V4ZM15 11H16.0527L16.9922 14.6465L17.9375 11H19L17.6465 16H16.3457L15 11ZM12 11.002C13.864 10.971 14 12.7789 14 13.1289V13.9375C14 14.2795 13.9138 16.039 12.0078 15.998C9.96681 15.955 10 14.2785 10 13.9375V13.1289C10 12.7779 10.167 11.031 12 11.002ZM4 11.0234H5.45703L6.50195 14.623L7.54297 11.0234H9V16H8V14.6523L8.10352 12.5781L6.87695 16H6.11719L4.89844 12.5781L5 14.6523V16H4V11.0234ZM12.002 11.8223C11.057 11.8413 11 12.8891 11 13.1211V13.9375C11 14.1595 11.1547 15.1967 12.0117 15.1797C12.8337 15.1637 13 14.1585 13 13.9375V13.1211C13 12.8891 12.888 11.8043 12.002 11.8223ZM6 18H18V20H6V18Z" fill="black"/>
</svg>
