<svg width="24" height="24" viewBox="0 0 24 24" fill="none" xmlns="http://www.w3.org/2000/svg">
<path d="M7 2C5.90575 2 5 2.90575 5 4V9H3C1.895 9 1 9.895 1 11V16C1 17.105 1.895 18 3 18H5V20C5 21.0943 5.90575 22 7 22H19C20.0943 22 21 21.0943 21 20V7L16 2H7ZM7 4H15V8H19V20H7V18H16C17.105 18 18 17.105 18 16V11C18 9.895 17.105 9 16 9H7V4ZM14.2402 10.8848C15.8492 10.8518 15.9396 12.0707 15.9336 12.3027C15.9136 12.9767 15.3143 13.3171 15.1953 13.3711C15.4673 13.4721 16.004 13.7552 16 14.5332C15.99 16.0222 14.4814 16.0111 14.2324 15.9961C12.8344 15.9121 12.5742 14.8105 12.5742 14.5645H13.6914C13.6914 14.6555 13.7867 15.2064 14.2637 15.1934C14.8497 15.1774 14.8807 14.7876 14.8867 14.5156C14.8927 14.2536 14.6777 13.7863 14.2207 13.7773H13.6797V12.998H14.2207C14.8027 12.928 14.8145 12.5225 14.8145 12.3145C14.8145 12.2235 14.7865 11.6775 14.2715 11.6855C13.8025 11.6935 13.7422 12.1532 13.7422 12.2402H12.627C12.627 12.0352 12.7552 10.9148 14.2402 10.8848ZM9 11H10H10.5C11.328 11 12 11.672 12 12.5C12 13.328 11.328 14 10.5 14H10V16H9V14V11ZM3 11.0234H4.45703L5.50195 14.623L6.54297 11.0234H8V16H7.99805H7V14.6523L7.10352 12.5781L5.87695 16H5.11719L3.89844 12.5781L4 14.6523V16H3V11.0234ZM10 12V13H10.5C10.776 13 11 12.776 11 12.5C11 12.224 10.776 12 10.5 12H10Z" fill="black"/>
</svg>
