<svg width="24" height="24" viewBox="0 0 24 24" fill="none" xmlns="http://www.w3.org/2000/svg">
<path d="M6 2C4.90575 2 4 2.90575 4 4V9C2.895 9 2 9.895 2 11V16C2 17.105 2.895 18 4 18V20C4 21.0943 4.90575 22 6 22H18C19.0943 22 20 21.0943 20 20V7L15 2H6ZM6 4H14V8H18V9H6V4ZM4 11H7V12H6V16H5V12H4V11ZM8.02539 11H9.27344L9.99805 12.7168L10.7246 11H11.9707L10.7031 13.4785L12 16H10.7383L9.99805 14.252L9.26172 16H8L9.29492 13.4785L8.02539 11ZM13 11H16V12H15V16H14V12H13V11ZM6 18H18V20H6V18Z" fill="black"/>
</svg>
