<svg width="24" height="24" viewBox="0 0 24 24" fill="none" xmlns="http://www.w3.org/2000/svg">
<path d="M6 2C4.90575 2 4 2.90575 4 4V9C2.895 9 2 9.895 2 11V16C2 17.105 2.895 18 4 18V20C4 21.0943 4.90575 22 6 22H18C19.0943 22 20 21.0943 20 20V7L15 2H6ZM6 4H14V8H18V20H6V18H15C16.105 18 17 17.105 17 16V11C17 9.895 16.105 9 15 9H6V4ZM4 11H7V12H5V13H6.59961V14H5V15H7V16H4V11ZM8 11H9.5C10.328 11 11 11.672 11 12.5C11 13.328 10.328 14 9.5 14H9V16H8V11ZM13.4902 11C14.9132 11.041 15 12.2829 15 12.5039H14.0312C14.0312 12.4009 14.0487 11.8066 13.4727 11.8066C13.2977 11.8066 12.9055 11.8842 12.9355 12.3672C12.9645 12.8102 13.5473 13.0194 13.6543 13.0664C13.8783 13.1484 14.9871 13.6424 14.9961 14.6504C14.9981 14.8644 14.9428 15.985 13.5098 16C11.9508 16.017 11.8457 14.6754 11.8457 14.3984H12.8203C12.8203 14.5454 12.8328 15.2562 13.5098 15.2012C13.9168 15.1672 14.0055 14.8743 14.0195 14.6562C14.0425 14.2893 13.6923 14.0686 13.3223 13.8906C12.8023 13.6406 11.9798 13.3334 11.9648 12.3594C11.9518 11.4824 12.5962 10.975 13.4902 11ZM9 12V13H9.5C9.776 13 10 12.776 10 12.5C10 12.224 9.776 12 9.5 12H9Z" fill="black"/>
</svg>
