<svg width="24" height="24" viewBox="0 0 24 24" fill="none" xmlns="http://www.w3.org/2000/svg">
<path d="M6 2C4.895 2 4 2.895 4 4V9H3C1.895 9 1 9.895 1 11V16C1 17.105 1.895 18 3 18H4V20C4 21.105 4.895 22 6 22H18C19.105 22 20 21.105 20 20V18C21.105 18 22 17.105 22 16V11C22 9.895 21.105 9 20 9V7L15 2H6ZM6 4H14V8H18V9H6V4ZM3 11H4V13H6V11H7V13V14V16H6V14H4V16H3V14V13V11ZM8 11H9H10H11V12H10V16H9V12H8V11ZM18 11H19V15H20V16H19H18V15V11ZM12 11.0234H13.457L14.502 14.623L15.543 11.0234H17V16H16V14.6523L16.1035 12.5781L14.877 16H14.1172L12.8984 12.5781L13 14.6523V16H12V11.0234ZM6 18H18V20H6V18Z" fill="black"/>
</svg>
