<svg width="24" height="24" viewBox="0 0 24 24" fill="none" xmlns="http://www.w3.org/2000/svg">
<path d="M6 2C4.90575 2 4 2.90575 4 4V9C2.895 9 2 9.895 2 11V16C2 17.105 2.895 18 4 18V20C4 21.0943 4.90575 22 6 22H18C19.0943 22 20 21.0943 20 20V7L15 2H6ZM6 4H14V8H18V9H6V4ZM6 11H7V14.5C7 15.328 6.328 16 5.5 16C4.672 16 4 15.328 4 14.5H5C5 14.776 5.224 15 5.5 15C5.776 15 6 14.776 6 14.5V11ZM8 11H9.5C10.328 11 11 11.672 11 12.5C11 13.328 10.328 14 9.5 14H9V16H8V11ZM14.0352 11.002C15.2072 11.003 15.6733 11.539 15.8633 12.002H14.5703H14C13.118 11.989 13 12.8569 13 13.0859V13.9141C13 14.1461 13.2068 15.012 14.1758 15.002C14.4588 14.999 14.976 14.8363 15 14.8223L14.9785 14H14L14.0215 13H16V15.3809C15.94 15.4369 15.2914 15.961 14.1074 15.998C13.7854 16.008 12.132 16.0381 12 13.9141V13.0918C12 12.7368 11.9582 11 14.0352 11.002ZM9 12V13H9.5C9.776 13 10 12.776 10 12.5C10 12.224 9.776 12 9.5 12H9ZM6 18H18V20H6V18Z" fill="black"/>
</svg>
