<svg width="24" height="24" viewBox="0 0 24 24" fill="none" xmlns="http://www.w3.org/2000/svg">
<path d="M1 5V19H4V13H8V19H11V5H8V10H4V5H1ZM17.9199 5C16.9919 5 16.1504 5.20342 15.3984 5.60742C14.6464 6.01142 14.0578 6.57206 13.6348 7.28906C13.2118 8.00606 13 8.78777 13 9.63477V10H16L16.0586 9.49023C16.0586 8.00023 17.0627 7.46484 17.8438 7.46484C19.4688 7.46484 19.5938 8.6892 19.5938 9.2832C19.5938 10.0162 18.8137 11.007 17.7207 12.252L13 16.9141V19H23V16.5352H17.4824C17.4824 16.5352 20.8992 12.775 21.3262 12.209C21.7522 11.643 22.0675 11.1029 22.2695 10.5879C22.4715 10.0729 22.5723 9.543 22.5723 9C22.5723 7.711 22.1683 6.7222 21.3633 6.0332C20.5583 5.3442 19.4109 5 17.9199 5Z" fill="black"/>
</svg>
