<svg width="24" height="24" viewBox="0 0 24 24" fill="none" xmlns="http://www.w3.org/2000/svg">
<path d="M3 4.5C2.60218 4.5 2.22064 4.65804 1.93934 4.93934C1.65804 5.22064 1.5 5.60218 1.5 6C1.5 6.39782 1.65804 6.77936 1.93934 7.06066C2.22064 7.34196 2.60218 7.5 3 7.5C3.39782 7.5 3.77936 7.34196 4.06066 7.06066C4.34196 6.77936 4.5 6.39782 4.5 6C4.5 5.60218 4.34196 5.22064 4.06066 4.93934C3.77936 4.65804 3.39782 4.5 3 4.5ZM7 5V7H22V5H7ZM3 10.5C2.60218 10.5 2.22064 10.658 1.93934 10.9393C1.65804 11.2206 1.5 11.6022 1.5 12C1.5 12.3978 1.65804 12.7794 1.93934 13.0607C2.22064 13.342 2.60218 13.5 3 13.5C3.39782 13.5 3.77936 13.342 4.06066 13.0607C4.34196 12.7794 4.5 12.3978 4.5 12C4.5 11.6022 4.34196 11.2206 4.06066 10.9393C3.77936 10.658 3.39782 10.5 3 10.5ZM7 11V13H22V11H7ZM3 16.5C2.60218 16.5 2.22064 16.658 1.93934 16.9393C1.65804 17.2206 1.5 17.6022 1.5 18C1.5 18.3978 1.65804 18.7794 1.93934 19.0607C2.22064 19.342 2.60218 19.5 3 19.5C3.39782 19.5 3.77936 19.342 4.06066 19.0607C4.34196 18.7794 4.5 18.3978 4.5 18C4.5 17.6022 4.34196 17.2206 4.06066 16.9393C3.77936 16.658 3.39782 16.5 3 16.5ZM7 17V19H22V17H7Z" fill="black"/>
</svg>
