<svg width="24" height="24" viewBox="0 0 24 24" fill="none" xmlns="http://www.w3.org/2000/svg">
<path d="M12 1C8.686 1 6 3.686 6 7C6 11.286 12 18 12 18C12 18 18 11.286 18 7C18 3.686 15.314 1 12 1ZM12 3C14.206 3 16 4.794 16 7C16 9.01 13.919 12.3604 11.998 14.8594C10.077 12.3644 8 9.016 8 7C8 4.794 9.794 3 12 3ZM12 5C11.4696 5 10.9609 5.21071 10.5858 5.58579C10.2107 5.96086 10 6.46957 10 7C10 7.53043 10.2107 8.03914 10.5858 8.41421C10.9609 8.78929 11.4696 9 12 9C12.5304 9 13.0391 8.78929 13.4142 8.41421C13.7893 8.03914 14 7.53043 14 7C14 6.46957 13.7893 5.96086 13.4142 5.58579C13.0391 5.21071 12.5304 5 12 5V5ZM7.48047 15.4355C4.23147 16.0955 2 17.442 2 19C2 21.209 6.477 23 12 23C17.523 23 22 21.209 22 19C22 17.442 19.7685 16.0965 16.5195 15.4355C16.0675 16.0965 15.6248 16.7024 15.2168 17.2324C17.9488 17.6464 19.5662 18.512 19.9492 18.998C19.4342 19.652 16.696 20.998 12.002 20.998L12 21.002L11.998 21C7.30405 21 4.56678 19.655 4.05078 19C4.43378 18.513 6.0502 17.6454 8.7832 17.2324C8.3752 16.7014 7.93247 16.0955 7.48047 15.4355Z" fill="#212121"/>
</svg>
