<svg width="24" height="24" viewBox="0 0 24 24" fill="none" xmlns="http://www.w3.org/2000/svg">
<path d="M18.4141 2C18.1581 2 17.902 2.09797 17.707 2.29297L5 15C5 15 6.005 15.005 6.5 15.5C6.995 15.995 6.98438 16.9844 6.98438 16.9844C6.98438 16.9844 8.003 17.003 8.5 17.5C8.997 17.997 9 19 9 19L21.707 6.29297C22.098 5.90197 22.098 5.26891 21.707 4.87891L19.1211 2.29297C18.9261 2.09797 18.6701 2 18.4141 2ZM18.4141 4.41406L19.5859 5.58594L18.5371 6.63477L17.3652 5.46289L18.4141 4.41406ZM15.9512 6.87695L17.123 8.04883L9.46094 15.7109C9.20994 15.5389 8.94555 15.4086 8.68555 15.3086C8.58755 15.0506 8.45906 14.7891 8.28906 14.5391L15.9512 6.87695ZM3.66992 17L3 21L7 20.3301L3.66992 17Z" fill="#212121"/>
</svg>
