<svg width="24" height="24" viewBox="0 0 24 24" fill="none" xmlns="http://www.w3.org/2000/svg">
<path d="M6 3V7H5C3.35 7 2 8.35 2 10V17H6V21H18V17H22V10C22 8.35 20.65 7 19 7H18V3H6ZM8 5H16V7H8V5ZM5 9H19C19.552 9 20 9.448 20 10V15H18V13H6V15H4V10C4 9.448 4.448 9 5 9ZM18 10C17.7348 10 17.4804 10.1054 17.2929 10.2929C17.1054 10.4804 17 10.7348 17 11C17 11.2652 17.1054 11.5196 17.2929 11.7071C17.4804 11.8946 17.7348 12 18 12C18.2652 12 18.5196 11.8946 18.7071 11.7071C18.8946 11.5196 19 11.2652 19 11C19 10.7348 18.8946 10.4804 18.7071 10.2929C18.5196 10.1054 18.2652 10 18 10ZM8 15H16V19H8V15Z" fill="black"/>
</svg>
