<svg width="24" height="24" viewBox="0 0 24 24" fill="none" xmlns="http://www.w3.org/2000/svg">
<path d="M5 3C3.35503 3 2 4.35503 2 6V9H5V18C5 19.645 6.35503 21 8 21H19C20.645 21 22 19.645 22 18V15H18V6C18 4.35503 16.645 3 15 3H5ZM5 5H12.416C12.279 5.34201 12 5.61165 12 6V7H4V6C4 5.43497 4.43497 5 5 5ZM15 5C15.565 5 16 5.43497 16 6V18C16 18.3883 16.279 18.658 16.416 19H8C7.43497 19 7 18.565 7 18V9H14V6C14 5.43497 14.435 5 15 5ZM9 11V13H14V11H9ZM9 15V17H14V15H9ZM18 17H20V18C20 18.565 19.565 19 19 19C18.435 19 18 18.565 18 18V17Z" fill="#212121"/>
</svg>
