<svg width="24" height="24" viewBox="0 0 24 24" fill="none" xmlns="http://www.w3.org/2000/svg">
<path d="M5 3C3.90575 3 3 3.90575 3 5V19C3 20.0943 3.90575 21 5 21H19C20.0943 21 21 20.0943 21 19V7L17 3H5ZM5 5H16.1719L19 7.82812V19H5V5ZM7 7V10H15V7H7ZM11.5 12C10.837 12 10.2011 12.2634 9.73223 12.7322C9.26339 13.2011 9 13.837 9 14.5C9 15.163 9.26339 15.7989 9.73223 16.2678C10.2011 16.7366 10.837 17 11.5 17C12.163 17 12.7989 16.7366 13.2678 16.2678C13.7366 15.7989 14 15.163 14 14.5C14 13.837 13.7366 13.2011 13.2678 12.7322C12.7989 12.2634 12.163 12 11.5 12Z" fill="black"/>
</svg>
