<svg width="24" height="24" viewBox="0 0 24 24" fill="none" xmlns="http://www.w3.org/2000/svg">
<path d="M7.5 2C4.462 2 2 4.462 2 7.5C2 8.731 2.4088 9.8623 3.0918 10.7793C3.0378 11.1793 3 11.585 3 12C3 16.971 7.029 21 12 21C12.415 21 12.8207 20.9622 13.2207 20.9082C14.1377 21.5912 15.269 22 16.5 22C19.538 22 22 19.538 22 16.5C22 15.269 21.5912 14.1377 20.9082 13.2207C20.9622 12.8207 21 12.415 21 12C21 7.029 16.971 3 12 3C11.585 3 11.1793 3.0378 10.7793 3.0918C9.8623 2.4088 8.731 2 7.5 2ZM7.5 4C8.253 4 8.97494 4.24031 9.58594 4.69531L10.2383 5.18359L11.0469 5.07422C11.4209 5.02322 11.724 5 12 5C15.86 5 19 8.14 19 12C19 12.276 18.9768 12.5781 18.9258 12.9531L18.8164 13.7617L19.3047 14.4141C19.7597 15.0251 20 15.747 20 16.5C20 18.43 18.43 20 16.5 20C15.747 20 15.0251 19.7597 14.4141 19.3047L13.7617 18.8164L12.9531 18.9258C12.5781 18.9758 12.276 19 12 19C8.14 19 5 15.86 5 12C5 11.724 5.02322 11.4219 5.07422 11.0469L5.18359 10.2383L4.69531 9.58594C4.24031 8.97494 4 8.253 4 7.5C4 5.57 5.57 4 7.5 4ZM11.8496 7C8.08961 7 7.8125 9.20891 7.8125 9.75391C7.8125 10.8379 8.43409 11.6799 9.49609 12.0879C10.6251 12.5219 11.9954 12.7821 12.7734 12.9941C13.9904 13.3271 13.8359 13.9977 13.8359 14.0957C13.8359 15.1257 12.4252 15.391 11.8242 15.334C11.1442 15.27 10.4553 15.4643 9.73828 13.9883C9.61028 13.7243 9.37497 13.1465 8.66797 13.1465C8.36197 13.1465 7.59766 13.3794 7.59766 14.1094C7.59766 15.5414 9.19652 17 11.9785 17C13.4325 17 16.1445 16.4967 16.1465 13.8887C16.1465 11.6177 13.8559 11.2192 12.1719 10.7852C11.7109 10.6662 9.99219 10.4762 9.99219 9.57617C9.99219 9.30917 10.3659 8.66797 11.7129 8.66797C13.0999 8.66797 13.4019 9.3173 13.5859 9.6543C13.7399 9.9213 13.8665 10.1276 14.0215 10.2266C14.6365 10.6196 15.1975 10.3183 15.3965 10.1113C15.5955 9.90433 15.6953 9.67602 15.6953 9.41602C15.6953 8.28502 14.3576 7 11.8496 7Z" fill="#212121"/>
</svg>
