<svg width="69" height="12" viewBox="0 0 69 12" fill="none" xmlns="http://www.w3.org/2000/svg">
<path d="M6.0857 0.249048C6.25517 -0.0830167 6.74483 -0.0830157 6.9143 0.249049L8.56499 3.48346C8.63229 3.61532 8.76238 3.70672 8.91286 3.72787L12.6039 4.24653C12.9829 4.29978 13.1342 4.75012 12.86 5.00859L10.1891 7.52623C10.0802 7.62887 10.0305 7.77676 10.0562 7.92169L10.6867 11.4767C10.7515 11.8416 10.3553 12.1199 10.0164 11.9476L6.71499 10.2692C6.5804 10.2008 6.4196 10.2008 6.28501 10.2692L2.98362 11.9476C2.64468 12.12 2.24854 11.8416 2.31327 11.4767L2.94378 7.92169C2.96948 7.77676 2.9198 7.62887 2.81091 7.52623L0.140025 5.00859C-0.134184 4.75012 0.0171291 4.29978 0.396077 4.24653L4.08714 3.72787C4.23762 3.70672 4.36771 3.61532 4.43501 3.48346L6.0857 0.249048Z" fill="#FFA800"/>
<path d="M20.0857 0.249048C20.2552 -0.0830167 20.7448 -0.0830157 20.9143 0.249049L22.565 3.48346C22.6323 3.61532 22.7624 3.70672 22.9129 3.72787L26.6039 4.24653C26.9829 4.29978 27.1342 4.75012 26.86 5.00859L24.1891 7.52623C24.0802 7.62887 24.0305 7.77676 24.0562 7.92169L24.6867 11.4767C24.7515 11.8416 24.3553 12.1199 24.0164 11.9476L20.715 10.2692C20.5804 10.2008 20.4196 10.2008 20.285 10.2692L16.9836 11.9476C16.6447 12.12 16.2485 11.8416 16.3133 11.4767L16.9438 7.92169C16.9695 7.77676 16.9198 7.62887 16.8109 7.52623L14.14 5.00859C13.8658 4.75012 14.0171 4.29978 14.3961 4.24653L18.0871 3.72787C18.2376 3.70672 18.3677 3.61532 18.435 3.48346L20.0857 0.249048Z" fill="#FFA800"/>
<path d="M34.0857 0.249048C34.2552 -0.0830167 34.7448 -0.0830157 34.9143 0.249049L36.565 3.48346C36.6323 3.61532 36.7624 3.70672 36.9129 3.72787L40.6039 4.24653C40.9829 4.29978 41.1342 4.75012 40.86 5.00859L38.1891 7.52623C38.0802 7.62887 38.0305 7.77676 38.0562 7.92169L38.6867 11.4767C38.7515 11.8416 38.3553 12.1199 38.0164 11.9476L34.715 10.2692C34.5804 10.2008 34.4196 10.2008 34.285 10.2692L30.9836 11.9476C30.6447 12.12 30.2485 11.8416 30.3133 11.4767L30.9438 7.92169C30.9695 7.77676 30.9198 7.62887 30.8109 7.52623L28.14 5.00859C27.8658 4.75012 28.0171 4.29978 28.3961 4.24653L32.0871 3.72787C32.2376 3.70672 32.3677 3.61532 32.435 3.48346L34.0857 0.249048Z" fill="#FFA800"/>
<path d="M48.0857 0.249048C48.2552 -0.0830167 48.7448 -0.0830157 48.9143 0.249049L50.565 3.48346C50.6323 3.61532 50.7624 3.70672 50.9129 3.72787L54.6039 4.24653C54.9829 4.29978 55.1342 4.75012 54.86 5.00859L52.1891 7.52623C52.0802 7.62887 52.0305 7.77676 52.0562 7.92169L52.6867 11.4767C52.7515 11.8416 52.3553 12.1199 52.0164 11.9476L48.715 10.2692C48.5804 10.2008 48.4196 10.2008 48.285 10.2692L44.9836 11.9476C44.6447 12.12 44.2485 11.8416 44.3133 11.4767L44.9438 7.92169C44.9695 7.77676 44.9198 7.62887 44.8109 7.52623L42.14 5.00859C41.8658 4.75012 42.0171 4.29978 42.3961 4.24653L46.0871 3.72787C46.2376 3.70672 46.3677 3.61532 46.435 3.48346L48.0857 0.249048Z" fill="#FFA800"/>
<path d="M62.0857 0.249048C62.2552 -0.0830167 62.7448 -0.0830157 62.9143 0.249049L64.565 3.48346C64.6323 3.61532 64.7624 3.70672 64.9129 3.72787L68.6039 4.24653C68.9829 4.29978 69.1342 4.75012 68.86 5.00859L66.1891 7.52623C66.0802 7.62887 66.0305 7.77676 66.0562 7.92169L66.6867 11.4767C66.7515 11.8416 66.3553 12.1199 66.0164 11.9476L62.715 10.2692C62.5804 10.2008 62.4196 10.2008 62.285 10.2692L58.9836 11.9476C58.6447 12.12 58.2485 11.8416 58.3133 11.4767L58.9438 7.92169C58.9695 7.77676 58.9198 7.62887 58.8109 7.52623L56.14 5.00859C55.8658 4.75012 56.0171 4.29978 56.3961 4.24653L60.0871 3.72787C60.2376 3.70672 60.3677 3.61532 60.435 3.48346L62.0857 0.249048Z" fill="#FFA800"/>
</svg>
