<svg width="69" height="12" viewBox="0 0 69 12" fill="none" xmlns="http://www.w3.org/2000/svg">
<path d="M4.88036 3.71075L6.5 0.537188L8.11964 3.71075C8.26335 3.99233 8.53645 4.17989 8.84328 4.223L12.4298 4.72697L9.84613 7.16239C9.61707 7.37832 9.50818 7.69482 9.5639 8.009L10.1775 11.4686L6.94159 9.8235C6.6646 9.68268 6.3354 9.68268 6.05841 9.8235L2.82249 11.4686L3.4361 8.009C3.49182 7.69482 3.38293 7.37831 3.15387 7.16239L0.570209 4.72697L4.15672 4.223C4.46355 4.17989 4.73665 3.99233 4.88036 3.71075Z" stroke="#FFA800"/>
<path d="M18.8804 3.71075L20.5 0.537188L22.1196 3.71075C22.2633 3.99233 22.5365 4.17989 22.8433 4.223L26.4298 4.72697L23.8461 7.16239C23.6171 7.37832 23.5082 7.69482 23.5639 8.009L24.1775 11.4686L20.9416 9.8235C20.6646 9.68268 20.3354 9.68268 20.0584 9.8235L16.8225 11.4686L17.4361 8.009C17.4918 7.69482 17.3829 7.37831 17.1539 7.16239L14.5702 4.72697L18.1567 4.223C18.4635 4.17989 18.7367 3.99233 18.8804 3.71075Z" stroke="#FFA800"/>
<path d="M32.8804 3.71075L34.5 0.537188L36.1196 3.71075C36.2633 3.99233 36.5365 4.17989 36.8433 4.223L40.4298 4.72697L37.8461 7.16239C37.6171 7.37832 37.5082 7.69482 37.5639 8.009L38.1775 11.4686L34.9416 9.8235C34.6646 9.68268 34.3354 9.68268 34.0584 9.8235L30.8225 11.4686L31.4361 8.009C31.4918 7.69482 31.3829 7.37831 31.1539 7.16239L28.5702 4.72697L32.1567 4.223C32.4635 4.17989 32.7367 3.99233 32.8804 3.71075Z" stroke="#FFA800"/>
<path d="M46.8804 3.71075L48.5 0.537188L50.1196 3.71075C50.2633 3.99233 50.5365 4.17989 50.8433 4.223L54.4298 4.72697L51.8461 7.16239C51.6171 7.37832 51.5082 7.69482 51.5639 8.009L52.1775 11.4686L48.9416 9.8235C48.6646 9.68268 48.3354 9.68268 48.0584 9.8235L44.8225 11.4686L45.4361 8.009C45.4918 7.69482 45.3829 7.37831 45.1539 7.16239L42.5702 4.72697L46.1567 4.223C46.4635 4.17989 46.7367 3.99233 46.8804 3.71075Z" stroke="#FFA800"/>
<path d="M60.8804 3.71075L62.5 0.537188L64.1196 3.71075C64.2633 3.99233 64.5365 4.17989 64.8433 4.223L68.4298 4.72697L65.8461 7.16239C65.6171 7.37832 65.5082 7.69482 65.5639 8.009L66.1775 11.4686L62.9416 9.8235C62.6646 9.68268 62.3354 9.68268 62.0584 9.8235L58.8225 11.4686L59.4361 8.009C59.4918 7.69482 59.3829 7.37831 59.1539 7.16239L56.5702 4.72697L60.1567 4.223C60.4635 4.17989 60.7367 3.99233 60.8804 3.71075Z" stroke="#FFA800"/>
</svg>
