<svg width="24" height="24" viewBox="0 0 24 24" fill="none" xmlns="http://www.w3.org/2000/svg">
<path d="M20.5723 3.01172C20.2399 2.97647 19.8786 3.02838 19.5156 3.17188C19.0656 3.34888 12.0144 6.31504 5.44141 9.08204L3.26953 9.9961C2.42853 10.3371 2.00391 10.8917 2.00391 11.6387C2.00391 12.1617 2.22525 12.8711 3.28125 13.2891L6.94727 14.7578C7.26427 15.7088 8.00055 17.9169 8.18555 18.5039C8.29555 18.8519 8.57339 19.7286 9.27539 19.9336C9.41939 19.9826 9.56966 20.0078 9.72266 20.0078C10.1657 20.0078 10.4846 19.8016 10.6406 19.6816L12.9707 17.7109L15.8008 20.3281C15.9098 20.4391 16.4867 21 17.2617 21C18.2287 21 18.9622 20.195 19.1152 19.416C19.1982 18.989 21.9277 5.28707 21.9277 5.28907C22.1727 4.19007 21.7322 3.61996 21.4492 3.37696C21.2067 3.16946 20.9046 3.04697 20.5723 3.01172ZM19.9102 5.17188C19.5332 7.06188 17.478 17.3782 17.166 18.8652L13.0293 15.0391L10.2227 17.416L11 14.375C11 14.375 16.3625 8.94687 16.6855 8.63087C16.9455 8.37787 17 8.28918 17 8.20118C17 8.08418 16.9398 8.00001 16.8008 8.00001C16.6758 8.00001 16.506 8.11979 16.416 8.17579C15.2727 8.8886 10.4041 11.6622 8.00781 13.0254L4.53125 11.6367L6.21875 10.9277C10.5177 9.11774 18.1742 5.89388 19.9102 5.17188Z" fill="#212121"/>
</svg>
