<svg width="24" height="24" viewBox="0 0 24 24" fill="none" xmlns="http://www.w3.org/2000/svg">
<path d="M14.168 1L7.58398 7.5957C7.21184 7.96885 7.00207 8.47382 7 9H1V21H7C7.36605 21 7.70494 20.8942 8 20.7227C8.29506 20.8942 8.63395 21 9 21H17.9922C18.7912 21 19.5141 20.5241 19.8301 19.7891L22.8379 12.7871C22.9449 12.5381 23 12.269 23 11.998V10C23 8.895 22.105 8 21 8H14.6484L15.5859 3.70312C15.7319 3.03212 15.5232 2.33452 15.0332 1.85352L14.168 1ZM13.3262 4.67383L12.6953 7.57422L12.168 10H14.6504H21V11.998L17.9922 19H9V11V9.00781L13.3262 4.67383ZM3 11H7V19H3V11Z" fill="black"/>
</svg>
