<svg width="24" height="24" viewBox="0 0 24 24" fill="none" xmlns="http://www.w3.org/2000/svg">
<path d="M1 2V14H7C7.00207 14.5272 7.21184 15.0312 7.58398 15.4043L14.168 22L15.0332 21.1484C15.5222 20.6664 15.7319 19.9669 15.5859 19.2969L14.6484 15H21C22.105 15 23 14.105 23 13V11.002C23 10.731 22.9449 10.4619 22.8379 10.2129L19.8301 3.21094C19.5151 2.47594 18.7912 2 17.9922 2H9C8.63395 2 8.29506 2.10581 8 2.27734C7.70494 2.10581 7.36605 2 7 2H1ZM3 4H7V12H3V4ZM9 4H17.9922L21 11.002V13H14.6484H12.166L12.6934 15.4258L13.3262 18.3262L9 13.9922V12V4Z" fill="black"/>
</svg>
