<svg width="24" height="24" viewBox="0 0 24 24" fill="none" xmlns="http://www.w3.org/2000/svg">
<path d="M12 3C9.66551 3 7.70061 4.2495 6.42969 6.01367C2.88546 6.05389 0 8.9466 0 12.5C0 16.0783 2.92173 19 6.5 19H9V17H6.5C4.00227 17 2 14.9977 2 12.5C2 10.0023 4.00227 8 6.5 8C6.53499 8 6.61646 8.00699 6.75 8.01367L7.36133 8.04492L7.66602 7.51367C8.53011 6.01235 10.1379 5 12 5C14.5045 5 16.554 6.82549 16.9316 9.21484L17.084 10.1758L18.0488 10.0508C18.2722 10.0217 18.4149 10 18.5 10C20.4444 10 22 11.5556 22 13.5C22 15.4444 20.4444 17 18.5 17H15V19H18.5C21.5256 19 24 16.5256 24 13.5C24 10.5096 21.577 8.0762 18.5996 8.01953C17.7299 5.14157 15.1521 3 12 3ZM12 9L8 13H11V21H13V13H16L12 9Z" fill="black"/>
</svg>
