<svg width="24" height="24" viewBox="0 0 24 24" fill="none" xmlns="http://www.w3.org/2000/svg">
<path d="M9.00204 2.00977C7.92349 2.06452 6.89816 2.68698 6.39266 3.67773L5.47469 5.47461L3.67782 6.39258C2.32382 7.08358 1.68247 8.63508 2.15047 10.0801L2.77157 12L2.15047 13.9219C1.68147 15.3669 2.32186 16.9174 3.67586 17.6094L5.47274 18.5254L6.39266 20.3223C7.06766 21.6443 8.67021 22.3096 10.0782 21.8516L12.0001 21.2285L13.92 21.8496C14.227 21.9496 14.5453 22 14.8673 22C16.0293 22 17.0785 21.3573 17.6075 20.3223L18.5255 18.5254L20.3243 17.6074C21.6773 16.9154 22.3187 15.3639 21.8497 13.9199L21.2286 12L21.8497 10.0801C22.3187 8.63408 21.6783 7.08358 20.3243 6.39258L18.5274 5.47461L17.6075 3.67773C16.9345 2.35673 15.329 1.69339 13.922 2.15039L12.0001 2.77148L10.0802 2.15234C9.72591 2.03709 9.36155 1.99152 9.00204 2.00977ZM9.08211 4.00195C9.20841 3.99581 9.33843 4.01098 9.46493 4.05273L11.6915 4.77344C11.8925 4.83844 12.1096 4.83844 12.3106 4.77344L14.5391 4.05078C15.0331 3.88878 15.5913 4.12394 15.8263 4.58594L16.8927 6.67188C16.9887 6.85887 17.1393 7.01142 17.3263 7.10742L19.4141 8.17383C19.8871 8.41583 20.1113 8.95884 19.9473 9.46484L19.2266 11.6914C19.1616 11.8914 19.1616 12.1066 19.2266 12.3066L19.3263 12.6152L19.9473 14.5352C20.1113 15.0412 19.8881 15.5842 19.4141 15.8262L17.3263 16.8926C17.1393 16.9886 16.9887 17.1392 16.8927 17.3262L15.8263 19.4121C15.5913 19.8731 15.0412 20.1123 14.5372 19.9473L12.3087 19.2266C12.2087 19.1936 12.1041 19.1777 12.0001 19.1777C11.8961 19.1777 11.7915 19.1926 11.6915 19.2266L9.46297 19.9492C8.96797 20.1112 8.40791 19.8751 8.17391 19.4141L7.10946 17.3281C7.01346 17.1411 6.86091 16.9886 6.67391 16.8926L4.58797 15.8262C4.11497 15.5842 3.88882 15.0412 4.05282 14.5352L4.77352 12.3086C4.83852 12.1086 4.83852 11.8934 4.77352 11.6934L4.05282 9.46484C3.88882 8.95884 4.11397 8.41583 4.58797 8.17383L6.67391 7.10742C6.85991 7.01142 7.01251 6.86083 7.1075 6.67383L8.17391 4.58789C8.35016 4.24139 8.70322 4.02038 9.08211 4.00195ZM16.2931 8.29297L11.0001 13.5859L8.70711 11.293L7.29305 12.707L11.0001 16.4141L17.7071 9.70703L16.2931 8.29297Z" fill="black"/>
</svg>
