<svg width="24" height="24" viewBox="0 0 24 24" fill="none" xmlns="http://www.w3.org/2000/svg">
<path d="M5 3C3.895 3 3 3.895 3 5V19C3 20.105 3.895 21 5 21H19C20.105 21 21 20.105 21 19V5C21 3.895 20.105 3 19 3H5ZM5 5H19V19H5V5ZM11.791 8.85742C11.201 8.85242 10.701 8.86005 10.418 8.99805C10.23 9.09005 10.0848 9.29659 10.1738 9.30859C10.2828 9.32259 10.5291 9.37469 10.6621 9.55469C10.8311 9.78569 10.8262 10.3047 10.8262 10.3047C10.8262 10.3047 10.9227 11.7322 10.5977 11.9102C10.3747 12.0322 10.0691 11.7844 9.41211 10.6484C9.07511 10.0654 8.82227 9.42188 8.82227 9.42188C8.82227 9.42188 8.77255 9.30033 8.68555 9.23633C8.57855 9.15833 8.42969 9.13281 8.42969 9.13281L6.85938 9.14062C6.85938 9.14062 6.62216 9.14114 6.53516 9.24414C6.45816 9.33614 6.5293 9.51758 6.5293 9.51758C6.5293 9.51758 7.7603 12.3868 9.1543 13.8398C10.4333 15.1718 11.8828 15.0508 11.8828 15.0508H12.541C12.541 15.0508 12.7408 15.0621 12.8418 14.9531C12.9348 14.8521 12.9316 14.6953 12.9316 14.6953C12.9316 14.6953 12.9191 13.8116 13.3281 13.6816C13.7321 13.5536 14.2498 14.5351 14.7988 14.9121C15.2128 15.1981 15.5293 15.1367 15.5293 15.1367L16.998 15.1172C16.998 15.1172 17.7653 15.0689 17.4043 14.4609C17.3743 14.4109 17.1925 14.0133 16.3125 13.1953C15.3905 12.3393 15.514 12.4771 16.623 10.9961C17.299 10.0951 17.5694 9.54459 17.4844 9.30859C17.4034 9.08259 16.9062 9.14258 16.9062 9.14258L15.2539 9.15234C15.2539 9.15234 15.1301 9.13445 15.0391 9.18945C14.9501 9.24345 14.8926 9.36719 14.8926 9.36719C14.8926 9.36719 14.6312 10.0662 14.2812 10.6602C13.5462 11.9132 13.2519 11.9784 13.1309 11.9004C12.8509 11.7204 12.9219 11.1742 12.9219 10.7852C12.9219 9.57116 13.1045 9.06459 12.5625 8.93359C12.3825 8.88959 12.251 8.86242 11.791 8.85742Z" fill="#212121"/>
</svg>
