<svg width="24" height="24" viewBox="0 0 24 24" fill="none" xmlns="http://www.w3.org/2000/svg">
<path d="M9.94531 2C9.7095 2.0088 9.46913 2.05487 9.23438 2.14062C8.29537 2.48162 7.71105 3.34961 7.74805 4.34961C7.75205 4.45661 7.6993 4.52255 7.6543 4.56055C7.6093 4.59855 7.53364 4.63723 7.43164 4.61523C6.45564 4.40323 5.49609 4.82931 4.99609 5.69531C4.49509 6.56131 4.60634 7.60175 5.27734 8.34375C5.35234 8.42675 5.3498 8.51941 5.3418 8.56641C5.3308 8.62441 5.29908 8.70195 5.20508 8.75195C4.32108 9.21995 3.86116 10.1595 4.03516 11.1445C4.20916 12.1295 4.96213 12.8552 5.95312 12.9922C6.05713 13.0062 6.11553 13.0691 6.14453 13.1191C6.17353 13.1691 6.1982 13.2506 6.1582 13.3496C5.85067 14.107 5.97086 14.9207 6.44141 15.5449L3.85742 20H7.35742V20.002L8.84766 23.2695L11.9844 18.041L15.1211 23.2695L16.6113 20H20.1113L17.543 15.5723C18.0304 14.9448 18.1564 14.1192 17.8438 13.3496C17.8047 13.2516 17.8314 13.1701 17.8594 13.1191C17.8884 13.0691 17.9468 13.0062 18.0508 12.9922C19.0418 12.8552 19.7948 12.1295 19.9688 11.1445C20.1427 10.1595 19.6828 9.21995 18.7988 8.75195C18.7048 8.70195 18.6731 8.62441 18.6621 8.56641C18.6541 8.51941 18.6516 8.42675 18.7266 8.34375C19.3976 7.60175 19.5088 6.56231 19.0078 5.69531C18.5078 4.82831 17.5483 4.40423 16.5723 4.61523C16.4683 4.63723 16.3946 4.59855 16.3496 4.56055C16.3046 4.52255 16.2519 4.45561 16.2559 4.34961C16.2929 3.35061 15.7085 2.48262 14.7695 2.14062C13.8285 1.79862 12.825 2.08695 12.209 2.87695C12.078 3.04395 11.9259 3.04495 11.7949 2.87695C11.3322 2.28445 10.6528 1.97361 9.94531 2ZM10.0801 4.00781C10.1298 4.02169 10.1753 4.05302 10.2148 4.10352C11.0758 5.21352 12.9222 5.21252 13.7852 4.10352C13.8632 4.00352 13.965 3.97458 14.082 4.01758C14.201 4.06058 14.2599 4.14744 14.2559 4.27344C14.2299 4.97544 14.5235 5.63784 15.0625 6.08984C15.6005 6.54184 16.3012 6.71636 16.9902 6.56836C17.1172 6.54136 17.2094 6.58436 17.2734 6.69336C17.3374 6.80336 17.3252 6.90795 17.2402 7.00195C16.7682 7.52395 16.5675 8.21911 16.6895 8.91211C16.8125 9.60411 17.2384 10.1915 17.8594 10.5195C17.9724 10.5785 18.0181 10.6719 17.9961 10.7969C17.9741 10.9219 17.8984 10.9928 17.7734 11.0098C17.0764 11.1068 16.475 11.5121 16.123 12.1211C15.772 12.7291 15.7233 13.4516 15.9883 14.1016C16.0363 14.2186 16.0111 14.3203 15.9141 14.4023C15.8161 14.4833 15.7105 14.4908 15.6055 14.4238C15.0085 14.0498 14.2889 13.9719 13.6289 14.2129C12.9689 14.4539 12.465 14.9745 12.248 15.6445C12.172 15.8865 11.828 15.8865 11.75 15.6445C11.534 14.9755 11.0311 14.4548 10.3711 14.2148C10.1171 14.1218 9.8567 14.0762 9.5957 14.0762C9.1777 14.0762 8.76248 14.1938 8.39648 14.4258C8.28848 14.4938 8.18689 14.4863 8.08789 14.4043C7.99189 14.3223 7.96472 14.2215 8.01172 14.1055C8.27672 13.4545 8.22795 12.7301 7.87695 12.1211C7.52595 11.5111 6.92356 11.1087 6.22656 11.0117C6.10156 10.9947 6.02686 10.9219 6.00586 10.7969C5.98386 10.6729 6.02862 10.5795 6.14062 10.5195C6.76162 10.1915 7.18755 9.60606 7.31055 8.91406C7.43255 8.22106 7.23372 7.52491 6.76172 7.00391C6.67672 6.90891 6.66552 6.80531 6.72852 6.69531C6.79152 6.58631 6.88177 6.54231 7.00977 6.57031C7.69877 6.72031 8.3995 6.5448 8.9375 6.0918C9.4775 5.6408 9.77014 4.97839 9.74414 4.27539C9.74014 4.14839 9.79897 4.06158 9.91797 4.01758C9.97647 3.99658 10.0303 3.99394 10.0801 4.00781ZM9.58594 16.0762C9.62506 16.0747 9.66 16.0838 9.6875 16.0938C9.7425 16.1137 9.81566 16.1588 9.84766 16.2598C9.94064 16.5481 10.0865 16.8006 10.2676 17.0195L9.05859 19.0332C8.70509 18.4186 8.07688 18 7.35742 18H7.33008L8.21875 16.4648C8.64283 16.471 9.07131 16.3609 9.45898 16.1172C9.50398 16.0892 9.54681 16.0777 9.58594 16.0762ZM14.416 16.0762C14.4551 16.0777 14.5009 16.0882 14.5469 16.1172C14.9225 16.3532 15.3357 16.4642 15.748 16.4648L16.6387 18H16.6113C15.8927 18 15.2638 18.4174 14.9102 19.0332L13.7148 17.041C13.9052 16.8175 14.0589 16.5577 14.1562 16.2598C14.1892 16.1588 14.2614 16.1137 14.3164 16.0938C14.3429 16.0838 14.3769 16.0747 14.416 16.0762Z" fill="#212121"/>
</svg>
