<svg width="50" height="50" viewBox="0 0 50 50" fill="none" xmlns="http://www.w3.org/2000/svg">
<path d="M12.8125 5.00006C12.2617 5.05084 11.8555 5.54303 11.9063 6.09381C11.957 6.64459 12.4492 7.05084 13 7.00006H37C37.3594 7.00397 37.6953 6.81647 37.8789 6.50397C38.0586 6.19147 38.0586 5.80865 37.8789 5.49615C37.6953 5.18365 37.3594 4.99615 37 5.00006H13C12.9688 5.00006 12.9375 5.00006 12.9063 5.00006C12.875 5.00006 12.8438 5.00006 12.8125 5.00006ZM7.81251 9.00006C7.26173 9.05084 6.85548 9.54303 6.90626 10.0938C6.95704 10.6446 7.44923 11.0508 8.00001 11.0001H42C42.3594 11.004 42.6953 10.8165 42.8789 10.504C43.0586 10.1915 43.0586 9.80865 42.8789 9.49615C42.6953 9.18365 42.3594 8.99615 42 9.00006H8.00001C7.96876 9.00006 7.93751 9.00006 7.90626 9.00006C7.87501 9.00006 7.84376 9.00006 7.81251 9.00006ZM2.81251 13.0001C2.33595 13.0899 1.9922 13.5118 2.00001 14.0001V44.0001C2.00001 44.5508 2.44923 45.0001 3.00001 45.0001H47C47.5508 45.0001 48 44.5508 48 44.0001V14.0001C48 13.4493 47.5508 13.0001 47 13.0001H3.00001C2.96876 13.0001 2.93751 13.0001 2.90626 13.0001C2.87501 13.0001 2.84376 13.0001 2.81251 13.0001ZM4.00001 15.0001H46V43.0001H4.00001V15.0001ZM20.1875 23.0001V35.0001L30.8125 29.0001L20.1875 23.0001Z" fill="#212121"/>
</svg>
