<svg width="50" height="50" viewBox="0 0 50 50" fill="none" xmlns="http://www.w3.org/2000/svg">
<path d="M41.0273 1.81267C40.8124 1.80877 40.6015 1.87127 40.4257 1.99236C40.4257 1.99236 39.121 2.92595 35.5976 3.94549C32.0742 4.96502 26.4179 6.00017 17.9999 6.00017C17.621 6.00017 17.2734 6.21502 17.1054 6.55486L2.17963 36.4064C1.90619 36.7892 1.93353 37.3088 2.24603 37.6564C2.26166 37.676 2.27728 37.6916 2.289 37.7033C2.30853 37.7228 2.32416 37.7385 2.34369 37.7541C2.34369 37.758 2.34369 37.758 2.34369 37.758C2.36322 37.7736 2.37885 37.7853 2.39838 37.797C2.67572 38.0353 14.4804 48.0002 33.9999 48.0002C34.3828 48.0002 34.7304 47.7814 34.8984 47.4377L47.914 20.84C48.0663 20.5353 48.0585 20.172 47.8828 19.8791C47.7109 19.5861 47.4023 19.4025 47.0624 19.3869C46.6601 19.3713 46.289 19.5939 46.1171 19.9572L33.3945 45.965C27.0898 45.8908 21.6757 44.7541 17.2382 43.2853C20.789 43.7853 24.8554 43.8635 29.3593 43.0783C29.6757 43.0236 29.9453 42.8205 30.0898 42.5314L46.1054 9.79705C46.2695 9.47674 46.246 9.09392 46.0507 8.79314C45.8554 8.49236 45.5117 8.32439 45.1562 8.34392C44.789 8.36736 44.4648 8.58611 44.3124 8.91424L28.5312 41.1564C20.8398 42.3947 14.5234 41.0822 10.1718 39.5002C10.2265 39.5041 10.2812 39.5158 10.3398 39.5197C14.6953 40.0431 20.1718 40.0822 24.707 37.9025C24.9101 37.8049 25.0742 37.6408 25.1718 37.4377L41.8984 3.25017C42.0468 2.94549 42.0312 2.58611 41.8554 2.29705C41.6757 2.00408 41.3671 1.82439 41.0273 1.81267ZM38.8867 4.85564L23.5507 36.1994C19.6445 37.9689 14.6406 38.0236 10.5781 37.5353C7.55463 37.176 5.56635 36.6681 4.44135 36.3556L18.6367 7.96111C26.8124 7.90252 32.5351 6.91033 36.1523 5.86736C37.3906 5.50799 38.0859 5.18767 38.8867 4.85564Z" fill="#212121"/>
</svg>
