<svg width="50" height="50" viewBox="0 0 50 50" fill="none" xmlns="http://www.w3.org/2000/svg">
<path d="M25 4C12.3281 4 2 12.8789 2 23.9961C2 30.4453 5.53125 36.0625 10.9609 39.7305C10.9531 39.9453 10.9688 40.2969 10.6875 41.3438C10.3359 42.6445 9.625 44.4727 8.1875 46.5352L7.16406 48H8.95312C15.1406 48 18.7227 43.9648 19.2773 43.3164C21.1211 43.75 23.0156 43.9844 25 43.9844C37.668 43.9844 48 35.1055 48 23.9922C48 12.8789 37.6719 4 25 4ZM25 6C36.5781 6 46 14.0703 46 23.9961C46 33.918 36.5781 41.9883 25 41.9883C23.2305 41.9883 21.5078 41.7852 19.7344 41.3711L18.5469 41.0938L17.7578 42.0156C17.0742 42.8164 14.7734 45.168 10.9844 45.8281C11.7109 44.5234 12.2578 43.1953 12.6133 41.8633C12.8945 40.832 12.9453 40.2891 12.957 39.8125L13.0039 38.6992L12.0781 38.0742C6.94531 34.6016 4 29.4688 4 23.9961C4 14.0703 13.4219 6 25 6ZM25 13.5977C23 13.5977 21.4023 14.1992 20.3008 15.4023C19.1016 16.6016 18.6016 18.1992 18.5 20.0977H21C21.1016 19 21.3008 18 21.5977 17.4023C22.1992 16.3008 23.3008 15.6992 24.9023 15.6992C26.1016 15.6992 27.0977 16 27.5977 16.6992C28.0977 17.3008 28.4023 18.1016 28.4023 19C28.4023 19.6992 28.1992 20.3008 27.8008 20.9023C27.6016 21.3008 27.3008 21.6016 27 21.9023L25.9023 23C24.8008 24.1016 24.1016 25 23.8008 25.8008C23.5 26.6016 23.3008 27.6992 23.3008 29H25.8008C25.8008 27.8008 25.8984 27 26.1992 26.5C26.5 25.8984 27.1016 25.1992 28 24.3008C29.3008 23.1016 30.1016 22.1992 30.5 21.5977C30.8984 21 31.0977 20.1992 31.0977 19.1992C31.0977 17.5977 30.5 16.1992 29.4023 15.1992C28.3008 14.0977 26.8008 13.5977 25 13.5977ZM23.3008 31.3008V34.1992H26V31.3008H23.3008Z" fill="#212121"/>
</svg>
