<svg width="50" height="50" viewBox="0 0 50 50" fill="none" xmlns="http://www.w3.org/2000/svg">
<path d="M49.0312 0.96875L47.9688 1C47.9688 1 40.6172 1.09766 33.5312 4.625C31.2539 5.76172 28.9648 7.32031 26.9062 9.375C24.3711 11.9102 20.793 16.0703 17.5312 20H9C8.96875 20 8.9375 20 8.90625 20C8.63672 20.0273 8.38672 20.1602 8.21875 20.375L3.21875 26.375C3.00781 26.6406 2.94141 26.9961 3.05078 27.3164C3.15625 27.6367 3.42188 27.8828 3.75 27.9688L9.84375 29.5C9.79688 29.5586 9.5 29.9375 9.5 29.9375L9.375 30.0625L9.3125 30.25C9.3125 30.25 9.22656 30.6016 9.25 30.9375C9.25781 31.0625 9.28125 31.2266 9.3125 31.375L7.15625 35C7.15625 35 7.05859 35.1953 7.03125 35.3125C7.00391 35.4297 6.99609 35.5742 7 35.7188C7.00781 36.0078 7.07812 36.332 7.25 36.7188C7.59375 37.4922 8.32812 38.5156 9.90625 40.0938C11.4844 41.668 12.5039 42.4062 13.2812 42.75C13.668 42.9219 13.9922 42.9922 14.2812 43C14.4258 43.0039 14.5703 42.9961 14.6875 42.9688C14.8047 42.9414 15 42.8438 15 42.8438L18.6562 40.6875C18.793 40.7148 18.9492 40.7422 19.0625 40.75C19.3984 40.7734 19.75 40.6875 19.75 40.6875L19.9375 40.625L20.0938 40.5C20.0938 40.5 20.4492 40.2266 20.5 40.1875L22.0312 46.25C22.1172 46.5781 22.3633 46.8438 22.6836 46.9492C23.0039 47.0586 23.3594 46.9922 23.625 46.7812L29.625 41.7812C29.8633 41.5898 30 41.3047 30 41V32.4375C33.957 29.1484 38.1445 25.5742 40.625 23.0938C42.6719 21.043 44.207 18.75 45.3438 16.4688C48.8555 9.39453 49 2.03125 49 2.03125L49.0312 0.96875ZM46.875 3.125C46.793 4.62891 46.3984 9.875 43.5625 15.5938C42.5078 17.7148 41.0938 19.8125 39.2188 21.6875C36.7812 24.125 32.4922 27.7812 28.5 31.0938C28.418 31.1445 28.3438 31.207 28.2812 31.2812C23.6055 35.1562 19.3867 38.5117 19.125 38.7188C19.0078 38.707 18.8242 38.6953 18.5 38.5625C17.7539 38.2578 16.4453 37.4766 14.5 35.5312C12.5547 33.5859 11.7422 32.2461 11.4375 31.5C11.3047 31.1758 11.293 30.9922 11.2812 30.875C11.4883 30.6133 14.7969 26.4414 18.6562 21.7812C18.7617 21.6953 18.8438 21.5898 18.9062 21.4688C22.1836 17.5156 25.8164 13.2773 28.3125 10.7812C30.1953 8.89844 32.2891 7.49609 34.4062 6.4375C40.1328 3.58984 45.375 3.20312 46.875 3.125ZM34 11C31.25 11 29 13.25 29 16C29 18.75 31.25 21 34 21C36.75 21 39 18.75 39 16C39 13.25 36.75 11 34 11ZM34 13C35.668 13 37 14.332 37 16C37 17.668 35.668 19 34 19C32.332 19 31 17.668 31 16C31 14.332 32.332 13 34 13ZM9.46875 22H15.875C13.957 24.3398 12.3789 26.3281 11.2188 27.7812L5.78125 26.4062L9.46875 22ZM10.3125 33.5938C10.8828 34.5078 11.7188 35.5938 13.0625 36.9375C14.4023 38.2773 15.4922 39.1172 16.4062 39.6875L14.25 40.9688C14.2188 40.9609 14.2227 40.9648 14.0938 40.9062C13.6836 40.7266 12.7891 40.1602 11.3125 38.6875C9.83984 37.2109 9.27344 36.3164 9.09375 35.9062C9.03516 35.7773 9.03906 35.7812 9.03125 35.75L10.3125 33.5938ZM28 34.125V40.5312L23.5938 44.2188L22.2188 38.8125C23.668 37.6523 25.6367 36.0703 28 34.125ZM6.40625 38.2188C4.77344 39.4727 3.29688 39.6328 1.96875 40.9375C1.30469 41.5898 0.777344 42.5156 0.46875 43.7812C0.160156 45.0469 0.03125 46.6797 0.03125 48.9688V49.9688H1.03125C5.625 49.9688 7.87109 49.2422 9.21875 47.875C10.5664 46.5078 10.7891 44.9844 11.8125 43.5938L10.1875 42.4062C8.89062 44.1719 8.60156 45.6367 7.78125 46.4688C7.05859 47.2031 5.44922 47.7422 2.125 47.875C2.17578 46.4219 2.24609 45.0273 2.4375 44.25C2.6875 43.2383 2.99219 42.75 3.375 42.375C4.13672 41.625 5.62891 41.2891 7.59375 39.7812L6.40625 38.2188ZM14.0938 41.0625L14 41.125V41.0938C14 41.0938 14.0547 41.0781 14.0938 41.0625Z" fill="#212121"/>
</svg>
