<svg width="50" height="50" viewBox="0 0 50 50" fill="none" xmlns="http://www.w3.org/2000/svg">
<g clip-path="url(#clip0)">
<path d="M17.0001 2C13.6993 2 11.0001 4.69922 11.0001 8C11.0001 9.98438 11.9766 11.75 13.4688 12.8438C12.668 13.2461 11.9376 13.7656 11.3126 14.4062C10.586 14.1484 9.81257 14 9.00007 14C5.1446 14 2.00007 17.1445 2.00007 21C2.00007 23.4492 3.2696 25.625 5.18757 26.875C2.13289 28.3203 7.33414e-05 31.4141 7.33414e-05 35V39.5C-0.00383291 39.8203 0.148511 40.1211 0.406323 40.3125C0.406323 40.3125 1.11335 40.8125 2.46882 41.2188C3.82429 41.625 5.91804 42 9.00007 42C12.0821 42 14.1759 41.625 15.5313 41.2188C15.7071 41.168 15.8477 41.1172 16.0001 41.0625V45.5C15.9962 45.8203 16.1485 46.1211 16.4063 46.3125C16.4063 46.3125 17.1134 46.8125 18.4688 47.2188C19.8243 47.625 21.918 48 25.0001 48C28.0821 48 30.1759 47.625 31.5313 47.2188C32.8868 46.8125 33.5938 46.3125 33.5938 46.3125C33.8516 46.1211 34.004 45.8203 34.0001 45.5V41.0625C34.1524 41.1172 34.293 41.168 34.4688 41.2188C35.8243 41.625 37.918 42 41.0001 42C44.0821 42 46.1759 41.625 47.5313 41.2188C48.8868 40.8125 49.5938 40.3125 49.5938 40.3125C49.8516 40.1211 50.004 39.8203 50.0001 39.5V35C50.0001 31.4141 47.8673 28.3203 44.8126 26.875C46.7305 25.625 48.0001 23.4492 48.0001 21C48.0001 17.1445 44.8555 14 41.0001 14C40.129 14 39.3009 14.1758 38.5313 14.4688C37.9024 13.8086 37.1602 13.2578 36.3438 12.8438C37.836 11.75 38.8126 9.98438 38.8126 8C38.8126 4.69922 36.1134 2 32.8126 2C29.5118 2 26.8126 4.69922 26.8126 8C26.8126 9.98438 27.7891 11.75 29.2813 12.8438C26.9844 13.9766 25.3048 16.1562 24.9063 18.7812C24.5079 16.1523 22.8321 13.9727 20.5313 12.8438C22.0235 11.75 23.0001 9.98438 23.0001 8C23.0001 4.69922 20.3009 2 17.0001 2ZM17.0001 4C19.2227 4 21.0001 5.77734 21.0001 8C21.0001 10.2227 19.2227 12 17.0001 12C14.7774 12 13.0001 10.2227 13.0001 8C13.0001 5.77734 14.7774 4 17.0001 4ZM32.8126 4C35.0352 4 36.8126 5.77734 36.8126 8C36.8126 10.2227 35.0352 12 32.8126 12C30.5899 12 28.8126 10.2227 28.8126 8C28.8126 5.77734 30.5899 4 32.8126 4ZM17.0001 14C20.3712 14 23.0001 16.6289 23.0001 20V20.3125C20.1251 21.1836 18.0001 23.8477 18.0001 27C18.0001 29.4492 19.2696 31.625 21.1876 32.875C19.9337 33.4688 18.8594 34.3398 18.0001 35.4062V35C18.0001 31.4141 15.8673 28.3203 12.8126 26.875C14.7305 25.625 16.0001 23.4492 16.0001 21C16.0001 18.7188 14.8868 16.6875 13.1876 15.4062C14.2266 14.5195 15.5157 14 17.0001 14ZM32.8126 14C34.3399 14 35.668 14.5352 36.7188 15.4688C35.0704 16.75 34.0001 18.7617 34.0001 21C34.0001 23.4492 35.2696 25.625 37.1876 26.875C34.1329 28.3203 32.0001 31.4141 32.0001 35V35.4062C31.1407 34.3398 30.0665 33.4688 28.8126 32.875C30.7305 31.625 32.0001 29.4492 32.0001 27C32.0001 23.7773 29.7891 21.0547 26.8126 20.25V20C26.8126 16.6289 29.4415 14 32.8126 14ZM9.00007 16C9.77742 16 10.5001 16.1875 11.1563 16.5C12.836 17.3047 14.0001 19.0039 14.0001 21C14.0001 23.7734 11.7735 26 9.00007 26C6.22664 26 4.00007 23.7734 4.00007 21C4.00007 18.2266 6.22664 16 9.00007 16ZM41.0001 16C43.7735 16 46.0001 18.2266 46.0001 21C46.0001 23.7734 43.7735 26 41.0001 26C38.2266 26 36.0001 23.7734 36.0001 21C36.0001 19.1523 36.9884 17.5547 38.4688 16.6875C38.4766 16.6836 38.4923 16.6914 38.5001 16.6875C38.6485 16.6562 38.7852 16.5938 38.9063 16.5C38.9415 16.4844 38.9649 16.4531 39.0001 16.4375C39.0196 16.4297 39.043 16.418 39.0626 16.4062C39.6602 16.1523 40.3087 16 41.0001 16ZM25.0001 22C27.7735 22 30.0001 24.2266 30.0001 27C30.0001 29.7734 27.7735 32 25.0001 32C22.2266 32 20.0001 29.7734 20.0001 27C20.0001 24.2266 22.2266 22 25.0001 22ZM9.00007 28C12.8555 28 16.0001 31.1445 16.0001 35V38.8438C15.8516 38.9336 15.793 39.0352 14.9688 39.2812C13.8243 39.625 11.918 40 9.00007 40C6.0821 40 4.17585 39.625 3.03132 39.2812C2.2071 39.0352 2.14851 38.9336 2.00007 38.8438V35C2.00007 31.1445 5.1446 28 9.00007 28ZM41.0001 28C44.8555 28 48.0001 31.1445 48.0001 35V38.8438C47.8516 38.9336 47.793 39.0352 46.9688 39.2812C45.8243 39.625 43.918 40 41.0001 40C38.0821 40 36.1759 39.625 35.0313 39.2812C34.2071 39.0352 34.1485 38.9336 34.0001 38.8438V35C34.0001 31.1445 37.1446 28 41.0001 28ZM25.0001 34C28.8555 34 32.0001 37.1445 32.0001 41V44.8438C31.8516 44.9336 31.793 45.0352 30.9688 45.2812C29.8243 45.625 27.918 46 25.0001 46C22.0821 46 20.1759 45.625 19.0313 45.2812C18.2071 45.0352 18.1485 44.9336 18.0001 44.8438V41C18.0001 37.1445 21.1446 34 25.0001 34Z" fill="#212121"/>
</g>
<defs>
<clipPath id="clip0">
<rect width="50" height="50" fill="white"/>
</clipPath>
</defs>
</svg>
